<mxfile host="Electron" agent="Mozilla/5.0 (Windows NT 10.0; Win64; x64) AppleWebKit/537.36 (KHTML, like Gecko) draw.io/24.7.5 Chrome/126.0.6478.183 Electron/31.3.0 Safari/537.36" version="24.7.5" pages="4">
  <diagram id="5fAICKBWsywurrW16DHK" name="ESL在芯片项目流程定位">
    <mxGraphModel dx="1185" dy="688" grid="1" gridSize="10" guides="1" tooltips="1" connect="1" arrows="1" fold="1" page="1" pageScale="1" pageWidth="827" pageHeight="1169" math="0" shadow="0">
      <root>
        <mxCell id="0" />
        <mxCell id="1" parent="0" />
        <mxCell id="G9V9SY87XHdmT34EGoaW-1" value="" style="edgeStyle=orthogonalEdgeStyle;rounded=0;orthogonalLoop=1;jettySize=auto;html=1;entryX=0.5;entryY=0;entryDx=0;entryDy=0;" edge="1" parent="1" source="G9V9SY87XHdmT34EGoaW-3" target="G9V9SY87XHdmT34EGoaW-18">
          <mxGeometry relative="1" as="geometry">
            <mxPoint x="520" y="456" as="targetPoint" />
          </mxGeometry>
        </mxCell>
        <mxCell id="G9V9SY87XHdmT34EGoaW-2" value="" style="edgeStyle=orthogonalEdgeStyle;rounded=0;orthogonalLoop=1;jettySize=auto;html=1;" edge="1" parent="1" source="G9V9SY87XHdmT34EGoaW-3" target="G9V9SY87XHdmT34EGoaW-4">
          <mxGeometry relative="1" as="geometry" />
        </mxCell>
        <mxCell id="G9V9SY87XHdmT34EGoaW-3" value="性能模型" style="rounded=0;whiteSpace=wrap;html=1;" vertex="1" parent="1">
          <mxGeometry x="460" y="316" width="120" height="60" as="geometry" />
        </mxCell>
        <mxCell id="G9V9SY87XHdmT34EGoaW-4" value="功能模型" style="rounded=0;whiteSpace=wrap;html=1;" vertex="1" parent="1">
          <mxGeometry x="780" y="316" width="120" height="60" as="geometry" />
        </mxCell>
        <mxCell id="G9V9SY87XHdmT34EGoaW-5" value="EMU验证" style="rounded=0;whiteSpace=wrap;html=1;" vertex="1" parent="1">
          <mxGeometry x="1020" y="484" width="120" height="60" as="geometry" />
        </mxCell>
        <mxCell id="G9V9SY87XHdmT34EGoaW-6" value="" style="edgeStyle=orthogonalEdgeStyle;rounded=0;orthogonalLoop=1;jettySize=auto;html=1;" edge="1" parent="1" source="G9V9SY87XHdmT34EGoaW-7" target="G9V9SY87XHdmT34EGoaW-10">
          <mxGeometry relative="1" as="geometry" />
        </mxCell>
        <mxCell id="G9V9SY87XHdmT34EGoaW-7" value="架构设计" style="rounded=0;whiteSpace=wrap;html=1;" vertex="1" parent="1">
          <mxGeometry x="240" y="160" width="120" height="60" as="geometry" />
        </mxCell>
        <mxCell id="G9V9SY87XHdmT34EGoaW-8" value="" style="edgeStyle=orthogonalEdgeStyle;rounded=0;orthogonalLoop=1;jettySize=auto;html=1;" edge="1" parent="1" source="G9V9SY87XHdmT34EGoaW-10" target="G9V9SY87XHdmT34EGoaW-3">
          <mxGeometry relative="1" as="geometry" />
        </mxCell>
        <mxCell id="G9V9SY87XHdmT34EGoaW-9" value="" style="edgeStyle=orthogonalEdgeStyle;rounded=0;orthogonalLoop=1;jettySize=auto;html=1;" edge="1" parent="1" source="G9V9SY87XHdmT34EGoaW-10" target="G9V9SY87XHdmT34EGoaW-14">
          <mxGeometry relative="1" as="geometry" />
        </mxCell>
        <mxCell id="G9V9SY87XHdmT34EGoaW-10" value="FS" style="rounded=0;whiteSpace=wrap;html=1;" vertex="1" parent="1">
          <mxGeometry x="460" y="160" width="120" height="60" as="geometry" />
        </mxCell>
        <mxCell id="G9V9SY87XHdmT34EGoaW-11" style="edgeStyle=orthogonalEdgeStyle;rounded=0;orthogonalLoop=1;jettySize=auto;html=1;entryX=0.5;entryY=1;entryDx=0;entryDy=0;" edge="1" parent="1" source="G9V9SY87XHdmT34EGoaW-21" target="G9V9SY87XHdmT34EGoaW-7">
          <mxGeometry relative="1" as="geometry" />
        </mxCell>
        <mxCell id="G9V9SY87XHdmT34EGoaW-12" value="refine" style="edgeLabel;html=1;align=center;verticalAlign=middle;resizable=0;points=[];" vertex="1" connectable="0" parent="G9V9SY87XHdmT34EGoaW-11">
          <mxGeometry x="0.1169" y="-1" relative="1" as="geometry">
            <mxPoint x="24" y="1" as="offset" />
          </mxGeometry>
        </mxCell>
        <mxCell id="G9V9SY87XHdmT34EGoaW-13" style="edgeStyle=orthogonalEdgeStyle;rounded=0;orthogonalLoop=1;jettySize=auto;html=1;exitX=1;exitY=0.5;exitDx=0;exitDy=0;entryX=0.5;entryY=0;entryDx=0;entryDy=0;" edge="1" parent="1" source="G9V9SY87XHdmT34EGoaW-14" target="G9V9SY87XHdmT34EGoaW-20">
          <mxGeometry relative="1" as="geometry">
            <mxPoint x="840" y="240" as="targetPoint" />
          </mxGeometry>
        </mxCell>
        <mxCell id="5Ji2UGnma32bgqjPr1eT-1" style="edgeStyle=orthogonalEdgeStyle;rounded=0;orthogonalLoop=1;jettySize=auto;html=1;exitX=0.5;exitY=1;exitDx=0;exitDy=0;entryX=0.5;entryY=0;entryDx=0;entryDy=0;" edge="1" parent="1" source="G9V9SY87XHdmT34EGoaW-14" target="G9V9SY87XHdmT34EGoaW-3">
          <mxGeometry relative="1" as="geometry" />
        </mxCell>
        <mxCell id="G9V9SY87XHdmT34EGoaW-14" value="AS" style="rounded=0;whiteSpace=wrap;html=1;" vertex="1" parent="1">
          <mxGeometry x="660" y="160" width="120" height="60" as="geometry" />
        </mxCell>
        <mxCell id="G9V9SY87XHdmT34EGoaW-15" value="" style="edgeStyle=orthogonalEdgeStyle;rounded=0;orthogonalLoop=1;jettySize=auto;html=1;" edge="1" parent="1" source="G9V9SY87XHdmT34EGoaW-16" target="G9V9SY87XHdmT34EGoaW-7">
          <mxGeometry relative="1" as="geometry" />
        </mxCell>
        <mxCell id="G9V9SY87XHdmT34EGoaW-16" value="产品需求" style="rounded=0;whiteSpace=wrap;html=1;" vertex="1" parent="1">
          <mxGeometry x="60" y="160" width="120" height="60" as="geometry" />
        </mxCell>
        <mxCell id="G9V9SY87XHdmT34EGoaW-17" style="edgeStyle=orthogonalEdgeStyle;rounded=0;orthogonalLoop=1;jettySize=auto;html=1;exitX=0.5;exitY=1;exitDx=0;exitDy=0;entryX=0.5;entryY=0;entryDx=0;entryDy=0;" edge="1" parent="1" source="G9V9SY87XHdmT34EGoaW-18" target="G9V9SY87XHdmT34EGoaW-21">
          <mxGeometry relative="1" as="geometry" />
        </mxCell>
        <mxCell id="G9V9SY87XHdmT34EGoaW-18" value="仿真数据" style="ellipse;whiteSpace=wrap;html=1;" vertex="1" parent="1">
          <mxGeometry x="460" y="420" width="120" height="80" as="geometry" />
        </mxCell>
        <mxCell id="G9V9SY87XHdmT34EGoaW-19" value="" style="edgeStyle=orthogonalEdgeStyle;rounded=0;orthogonalLoop=1;jettySize=auto;html=1;" edge="1" parent="1" source="G9V9SY87XHdmT34EGoaW-20" target="G9V9SY87XHdmT34EGoaW-4">
          <mxGeometry relative="1" as="geometry" />
        </mxCell>
        <mxCell id="G9V9SY87XHdmT34EGoaW-20" value="寄存器" style="shape=document;whiteSpace=wrap;html=1;boundedLbl=1;" vertex="1" parent="1">
          <mxGeometry x="800" y="240" width="80" height="50" as="geometry" />
        </mxCell>
        <mxCell id="G9V9SY87XHdmT34EGoaW-21" value="仿真结果" style="ellipse;whiteSpace=wrap;html=1;" vertex="1" parent="1">
          <mxGeometry x="460" y="534" width="120" height="80" as="geometry" />
        </mxCell>
        <mxCell id="G9V9SY87XHdmT34EGoaW-22" value="EMU验证" style="rounded=0;whiteSpace=wrap;html=1;" vertex="1" parent="1">
          <mxGeometry x="1020" y="554" width="120" height="60" as="geometry" />
        </mxCell>
      </root>
    </mxGraphModel>
  </diagram>
  <diagram id="hmRfj_Q4AG5cENP2VgIN" name="ESL模型演进">
    <mxGraphModel dx="1430" dy="830" grid="1" gridSize="10" guides="1" tooltips="1" connect="1" arrows="1" fold="1" page="1" pageScale="1" pageWidth="827" pageHeight="1169" math="0" shadow="0">
      <root>
        <mxCell id="0" />
        <mxCell id="1" parent="0" />
        <mxCell id="rYU8m3D9MCKIa4ypy-Mo-1" value="evolution" style="html=1;verticalAlign=bottom;startArrow=circle;startFill=1;endArrow=open;startSize=6;endSize=8;curved=0;rounded=0;" edge="1" parent="1">
          <mxGeometry width="80" relative="1" as="geometry">
            <mxPoint x="240" y="742" as="sourcePoint" />
            <mxPoint x="450" y="742" as="targetPoint" />
          </mxGeometry>
        </mxCell>
        <mxCell id="rYU8m3D9MCKIa4ypy-Mo-2" value="TR1" style="shape=umlBoundary;whiteSpace=wrap;html=1;" vertex="1" parent="1">
          <mxGeometry x="450" y="717" width="60" height="50" as="geometry" />
        </mxCell>
        <mxCell id="rYU8m3D9MCKIa4ypy-Mo-3" value="TR2" style="shape=umlBoundary;whiteSpace=wrap;html=1;" vertex="1" parent="1">
          <mxGeometry x="720" y="717" width="60" height="50" as="geometry" />
        </mxCell>
        <mxCell id="rYU8m3D9MCKIa4ypy-Mo-4" value="evolution" style="html=1;verticalAlign=bottom;startArrow=circle;startFill=1;endArrow=open;startSize=6;endSize=8;curved=0;rounded=0;" edge="1" parent="1">
          <mxGeometry width="80" relative="1" as="geometry">
            <mxPoint x="510" y="741.66" as="sourcePoint" />
            <mxPoint x="720" y="741.66" as="targetPoint" />
          </mxGeometry>
        </mxCell>
        <mxCell id="rYU8m3D9MCKIa4ypy-Mo-5" value="TR3" style="shape=umlBoundary;whiteSpace=wrap;html=1;" vertex="1" parent="1">
          <mxGeometry x="990" y="717" width="60" height="50" as="geometry" />
        </mxCell>
        <mxCell id="rYU8m3D9MCKIa4ypy-Mo-6" value="evolution" style="html=1;verticalAlign=bottom;startArrow=circle;startFill=1;endArrow=open;startSize=6;endSize=8;curved=0;rounded=0;" edge="1" parent="1">
          <mxGeometry width="80" relative="1" as="geometry">
            <mxPoint x="780" y="741.66" as="sourcePoint" />
            <mxPoint x="990" y="741.66" as="targetPoint" />
          </mxGeometry>
        </mxCell>
        <mxCell id="rYU8m3D9MCKIa4ypy-Mo-7" value="85%" style="shape=umlBoundary;whiteSpace=wrap;html=1;" vertex="1" parent="1">
          <mxGeometry x="1191" y="717" width="60" height="50" as="geometry" />
        </mxCell>
        <mxCell id="rYU8m3D9MCKIa4ypy-Mo-8" value="evolution" style="html=1;verticalAlign=bottom;startArrow=circle;startFill=1;endArrow=open;startSize=6;endSize=8;curved=0;rounded=0;" edge="1" parent="1">
          <mxGeometry width="80" relative="1" as="geometry">
            <mxPoint x="1050" y="741.66" as="sourcePoint" />
            <mxPoint x="1190" y="742" as="targetPoint" />
          </mxGeometry>
        </mxCell>
        <mxCell id="rYU8m3D9MCKIa4ypy-Mo-9" value="95%" style="shape=umlBoundary;whiteSpace=wrap;html=1;" vertex="1" parent="1">
          <mxGeometry x="1350" y="717" width="60" height="50" as="geometry" />
        </mxCell>
        <mxCell id="rYU8m3D9MCKIa4ypy-Mo-10" value="evolution" style="html=1;verticalAlign=bottom;startArrow=circle;startFill=1;endArrow=open;startSize=6;endSize=8;curved=0;rounded=0;" edge="1" parent="1">
          <mxGeometry width="80" relative="1" as="geometry">
            <mxPoint x="1251" y="741.66" as="sourcePoint" />
            <mxPoint x="1350" y="742" as="targetPoint" />
          </mxGeometry>
        </mxCell>
        <mxCell id="rYU8m3D9MCKIa4ypy-Mo-11" value="100%" style="shape=umlBoundary;whiteSpace=wrap;html=1;" vertex="1" parent="1">
          <mxGeometry x="1480" y="717" width="60" height="50" as="geometry" />
        </mxCell>
        <mxCell id="rYU8m3D9MCKIa4ypy-Mo-12" value="evolution" style="html=1;verticalAlign=bottom;startArrow=circle;startFill=1;endArrow=open;startSize=6;endSize=8;curved=0;rounded=0;" edge="1" parent="1">
          <mxGeometry width="80" relative="1" as="geometry">
            <mxPoint x="1410" y="741.66" as="sourcePoint" />
            <mxPoint x="1480" y="742" as="targetPoint" />
          </mxGeometry>
        </mxCell>
        <mxCell id="rYU8m3D9MCKIa4ypy-Mo-13" value="ESL 性能模型" style="endArrow=block;endSize=16;endFill=0;html=1;rounded=0;entryX=0.5;entryY=0.5;entryDx=0;entryDy=0;entryPerimeter=0;" edge="1" parent="1">
          <mxGeometry width="160" relative="1" as="geometry">
            <mxPoint x="250" y="812" as="sourcePoint" />
            <mxPoint x="1020" y="807" as="targetPoint" />
          </mxGeometry>
        </mxCell>
        <mxCell id="rYU8m3D9MCKIa4ypy-Mo-14" value="ESL 功能模型" style="endArrow=block;endSize=16;endFill=0;html=1;rounded=0;entryX=0.5;entryY=0.5;entryDx=0;entryDy=0;entryPerimeter=0;" edge="1" parent="1">
          <mxGeometry width="160" relative="1" as="geometry">
            <mxPoint x="1020" y="807" as="sourcePoint" />
            <mxPoint x="1221" y="807" as="targetPoint" />
          </mxGeometry>
        </mxCell>
        <mxCell id="rYU8m3D9MCKIa4ypy-Mo-15" value="ESL full-chip功能模型" style="endArrow=block;endSize=16;endFill=0;html=1;rounded=0;entryX=0.5;entryY=0.5;entryDx=0;entryDy=0;entryPerimeter=0;" edge="1" parent="1">
          <mxGeometry width="160" relative="1" as="geometry">
            <mxPoint x="1220" y="806.58" as="sourcePoint" />
            <mxPoint x="1510" y="807" as="targetPoint" />
          </mxGeometry>
        </mxCell>
        <mxCell id="rYU8m3D9MCKIa4ypy-Mo-16" value="&amp;nbsp; &amp;nbsp;charter" style="shape=umlLifeline;perimeter=lifelinePerimeter;whiteSpace=wrap;html=1;container=1;dropTarget=0;collapsible=0;recursiveResize=0;outlineConnect=0;portConstraint=eastwest;newEdgeStyle={&quot;curved&quot;:0,&quot;rounded&quot;:0};participant=umlBoundary;" vertex="1" parent="1">
          <mxGeometry x="210" y="670" width="70" height="78" as="geometry" />
        </mxCell>
        <mxCell id="rYU8m3D9MCKIa4ypy-Mo-17" value="" style="line;strokeWidth=2;direction=south;html=1;" vertex="1" parent="1">
          <mxGeometry x="1015" y="767" width="10" height="85" as="geometry" />
        </mxCell>
        <mxCell id="rYU8m3D9MCKIa4ypy-Mo-18" value="" style="line;strokeWidth=2;direction=south;html=1;" vertex="1" parent="1">
          <mxGeometry x="244" y="767" width="10" height="85" as="geometry" />
        </mxCell>
        <mxCell id="rYU8m3D9MCKIa4ypy-Mo-19" value="" style="line;strokeWidth=2;direction=south;html=1;" vertex="1" parent="1">
          <mxGeometry x="1216" y="767" width="10" height="85" as="geometry" />
        </mxCell>
        <mxCell id="rYU8m3D9MCKIa4ypy-Mo-20" value="" style="line;strokeWidth=2;direction=south;html=1;" vertex="1" parent="1">
          <mxGeometry x="1505" y="767" width="10" height="85" as="geometry" />
        </mxCell>
        <mxCell id="rYU8m3D9MCKIa4ypy-Mo-21" value="" style="group" vertex="1" connectable="0" parent="1">
          <mxGeometry x="210" y="110" width="1330" height="182" as="geometry" />
        </mxCell>
        <mxCell id="daMI2j01nIv5ym0El-4l-9" value="evolution" style="html=1;verticalAlign=bottom;startArrow=circle;startFill=1;endArrow=open;startSize=6;endSize=8;curved=0;rounded=0;" edge="1" parent="rYU8m3D9MCKIa4ypy-Mo-21">
          <mxGeometry width="80" relative="1" as="geometry">
            <mxPoint x="30" y="72" as="sourcePoint" />
            <mxPoint x="240" y="72" as="targetPoint" />
          </mxGeometry>
        </mxCell>
        <mxCell id="daMI2j01nIv5ym0El-4l-12" value="TR1" style="shape=umlBoundary;whiteSpace=wrap;html=1;" vertex="1" parent="rYU8m3D9MCKIa4ypy-Mo-21">
          <mxGeometry x="240" y="47" width="60" height="50" as="geometry" />
        </mxCell>
        <mxCell id="daMI2j01nIv5ym0El-4l-17" value="TR2" style="shape=umlBoundary;whiteSpace=wrap;html=1;" vertex="1" parent="rYU8m3D9MCKIa4ypy-Mo-21">
          <mxGeometry x="510" y="47" width="60" height="50" as="geometry" />
        </mxCell>
        <mxCell id="daMI2j01nIv5ym0El-4l-18" value="evolution" style="html=1;verticalAlign=bottom;startArrow=circle;startFill=1;endArrow=open;startSize=6;endSize=8;curved=0;rounded=0;" edge="1" parent="rYU8m3D9MCKIa4ypy-Mo-21">
          <mxGeometry width="80" relative="1" as="geometry">
            <mxPoint x="300" y="71.65999999999997" as="sourcePoint" />
            <mxPoint x="510" y="71.65999999999997" as="targetPoint" />
          </mxGeometry>
        </mxCell>
        <mxCell id="daMI2j01nIv5ym0El-4l-19" value="TR3" style="shape=umlBoundary;whiteSpace=wrap;html=1;" vertex="1" parent="rYU8m3D9MCKIa4ypy-Mo-21">
          <mxGeometry x="780" y="47" width="60" height="50" as="geometry" />
        </mxCell>
        <mxCell id="daMI2j01nIv5ym0El-4l-20" value="evolution" style="html=1;verticalAlign=bottom;startArrow=circle;startFill=1;endArrow=open;startSize=6;endSize=8;curved=0;rounded=0;" edge="1" parent="rYU8m3D9MCKIa4ypy-Mo-21">
          <mxGeometry width="80" relative="1" as="geometry">
            <mxPoint x="570" y="71.65999999999997" as="sourcePoint" />
            <mxPoint x="780" y="71.65999999999997" as="targetPoint" />
          </mxGeometry>
        </mxCell>
        <mxCell id="daMI2j01nIv5ym0El-4l-21" value="85%" style="shape=umlBoundary;whiteSpace=wrap;html=1;" vertex="1" parent="rYU8m3D9MCKIa4ypy-Mo-21">
          <mxGeometry x="981" y="47" width="60" height="50" as="geometry" />
        </mxCell>
        <mxCell id="daMI2j01nIv5ym0El-4l-22" value="evolution" style="html=1;verticalAlign=bottom;startArrow=circle;startFill=1;endArrow=open;startSize=6;endSize=8;curved=0;rounded=0;" edge="1" parent="rYU8m3D9MCKIa4ypy-Mo-21">
          <mxGeometry width="80" relative="1" as="geometry">
            <mxPoint x="840" y="71.65999999999997" as="sourcePoint" />
            <mxPoint x="980" y="72" as="targetPoint" />
          </mxGeometry>
        </mxCell>
        <mxCell id="daMI2j01nIv5ym0El-4l-23" value="95%" style="shape=umlBoundary;whiteSpace=wrap;html=1;" vertex="1" parent="rYU8m3D9MCKIa4ypy-Mo-21">
          <mxGeometry x="1140" y="47" width="60" height="50" as="geometry" />
        </mxCell>
        <mxCell id="daMI2j01nIv5ym0El-4l-24" value="evolution" style="html=1;verticalAlign=bottom;startArrow=circle;startFill=1;endArrow=open;startSize=6;endSize=8;curved=0;rounded=0;" edge="1" parent="rYU8m3D9MCKIa4ypy-Mo-21">
          <mxGeometry width="80" relative="1" as="geometry">
            <mxPoint x="1041" y="71.65999999999997" as="sourcePoint" />
            <mxPoint x="1140" y="72" as="targetPoint" />
          </mxGeometry>
        </mxCell>
        <mxCell id="daMI2j01nIv5ym0El-4l-25" value="100%" style="shape=umlBoundary;whiteSpace=wrap;html=1;" vertex="1" parent="rYU8m3D9MCKIa4ypy-Mo-21">
          <mxGeometry x="1270" y="47" width="60" height="50" as="geometry" />
        </mxCell>
        <mxCell id="daMI2j01nIv5ym0El-4l-26" value="evolution" style="html=1;verticalAlign=bottom;startArrow=circle;startFill=1;endArrow=open;startSize=6;endSize=8;curved=0;rounded=0;" edge="1" parent="rYU8m3D9MCKIa4ypy-Mo-21">
          <mxGeometry width="80" relative="1" as="geometry">
            <mxPoint x="1200" y="71.65999999999997" as="sourcePoint" />
            <mxPoint x="1270" y="72" as="targetPoint" />
          </mxGeometry>
        </mxCell>
        <mxCell id="daMI2j01nIv5ym0El-4l-36" value="ESL 性能模型" style="endArrow=block;endSize=16;endFill=0;html=1;rounded=0;entryX=0.5;entryY=0.5;entryDx=0;entryDy=0;entryPerimeter=0;" edge="1" parent="rYU8m3D9MCKIa4ypy-Mo-21">
          <mxGeometry width="160" relative="1" as="geometry">
            <mxPoint x="40" y="142" as="sourcePoint" />
            <mxPoint x="810" y="137" as="targetPoint" />
          </mxGeometry>
        </mxCell>
        <mxCell id="daMI2j01nIv5ym0El-4l-37" value="ESL 功能模型" style="endArrow=block;endSize=16;endFill=0;html=1;rounded=0;entryX=0.5;entryY=0.5;entryDx=0;entryDy=0;entryPerimeter=0;" edge="1" parent="rYU8m3D9MCKIa4ypy-Mo-21">
          <mxGeometry width="160" relative="1" as="geometry">
            <mxPoint x="810" y="137" as="sourcePoint" />
            <mxPoint x="1011" y="137" as="targetPoint" />
          </mxGeometry>
        </mxCell>
        <mxCell id="daMI2j01nIv5ym0El-4l-38" value="ESL full-chip功能模型" style="endArrow=block;endSize=16;endFill=0;html=1;rounded=0;entryX=0.5;entryY=0.5;entryDx=0;entryDy=0;entryPerimeter=0;" edge="1" parent="rYU8m3D9MCKIa4ypy-Mo-21">
          <mxGeometry width="160" relative="1" as="geometry">
            <mxPoint x="1010" y="136.58000000000004" as="sourcePoint" />
            <mxPoint x="1300" y="137" as="targetPoint" />
          </mxGeometry>
        </mxCell>
        <mxCell id="daMI2j01nIv5ym0El-4l-41" value="&amp;nbsp; &amp;nbsp;charter" style="shape=umlLifeline;perimeter=lifelinePerimeter;whiteSpace=wrap;html=1;container=1;dropTarget=0;collapsible=0;recursiveResize=0;outlineConnect=0;portConstraint=eastwest;newEdgeStyle={&quot;curved&quot;:0,&quot;rounded&quot;:0};participant=umlBoundary;" vertex="1" parent="rYU8m3D9MCKIa4ypy-Mo-21">
          <mxGeometry width="70" height="78" as="geometry" />
        </mxCell>
        <mxCell id="daMI2j01nIv5ym0El-4l-42" value="" style="line;strokeWidth=2;direction=south;html=1;" vertex="1" parent="rYU8m3D9MCKIa4ypy-Mo-21">
          <mxGeometry x="805" y="97" width="10" height="85" as="geometry" />
        </mxCell>
        <mxCell id="daMI2j01nIv5ym0El-4l-43" value="" style="line;strokeWidth=2;direction=south;html=1;" vertex="1" parent="rYU8m3D9MCKIa4ypy-Mo-21">
          <mxGeometry x="34" y="97" width="10" height="85" as="geometry" />
        </mxCell>
        <mxCell id="daMI2j01nIv5ym0El-4l-44" value="" style="line;strokeWidth=2;direction=south;html=1;" vertex="1" parent="rYU8m3D9MCKIa4ypy-Mo-21">
          <mxGeometry x="1006" y="97" width="10" height="85" as="geometry" />
        </mxCell>
        <mxCell id="daMI2j01nIv5ym0El-4l-45" value="" style="line;strokeWidth=2;direction=south;html=1;" vertex="1" parent="rYU8m3D9MCKIa4ypy-Mo-21">
          <mxGeometry x="1295" y="97" width="10" height="85" as="geometry" />
        </mxCell>
        <mxCell id="yIjfsGvirl62rjQTb2FM-1" value="" style="edgeStyle=orthogonalEdgeStyle;rounded=0;orthogonalLoop=1;jettySize=auto;html=1;entryX=0.5;entryY=0;entryDx=0;entryDy=0;" edge="1" parent="1" source="yIjfsGvirl62rjQTb2FM-3" target="yIjfsGvirl62rjQTb2FM-18">
          <mxGeometry relative="1" as="geometry">
            <mxPoint x="704" y="1180" as="targetPoint" />
          </mxGeometry>
        </mxCell>
        <mxCell id="yIjfsGvirl62rjQTb2FM-2" value="" style="edgeStyle=orthogonalEdgeStyle;rounded=0;orthogonalLoop=1;jettySize=auto;html=1;" edge="1" parent="1" source="yIjfsGvirl62rjQTb2FM-3" target="yIjfsGvirl62rjQTb2FM-4">
          <mxGeometry relative="1" as="geometry" />
        </mxCell>
        <mxCell id="yIjfsGvirl62rjQTb2FM-3" value="性能模型" style="rounded=0;whiteSpace=wrap;html=1;fillColor=#d5e8d4;strokeColor=#82b366;" vertex="1" parent="1">
          <mxGeometry x="720" y="1040" width="120" height="60" as="geometry" />
        </mxCell>
        <mxCell id="nej1GL7O0t57ezvfqDkV-5" style="edgeStyle=orthogonalEdgeStyle;rounded=0;orthogonalLoop=1;jettySize=auto;html=1;exitX=1;exitY=0.5;exitDx=0;exitDy=0;entryX=0;entryY=0.5;entryDx=0;entryDy=0;" edge="1" parent="1" source="yIjfsGvirl62rjQTb2FM-4" target="nej1GL7O0t57ezvfqDkV-3">
          <mxGeometry relative="1" as="geometry" />
        </mxCell>
        <mxCell id="yIjfsGvirl62rjQTb2FM-4" value="功能模型" style="rounded=0;whiteSpace=wrap;html=1;fillColor=#d5e8d4;strokeColor=#82b366;" vertex="1" parent="1">
          <mxGeometry x="1091" y="1040" width="120" height="60" as="geometry" />
        </mxCell>
        <mxCell id="yIjfsGvirl62rjQTb2FM-5" value="" style="edgeStyle=orthogonalEdgeStyle;rounded=0;orthogonalLoop=1;jettySize=auto;html=1;" edge="1" parent="1" target="yIjfsGvirl62rjQTb2FM-9">
          <mxGeometry relative="1" as="geometry">
            <mxPoint x="544" y="910" as="sourcePoint" />
          </mxGeometry>
        </mxCell>
        <mxCell id="yIjfsGvirl62rjQTb2FM-6" value="架构设计" style="rounded=0;whiteSpace=wrap;html=1;" vertex="1" parent="1">
          <mxGeometry x="434" y="880" width="120" height="60" as="geometry" />
        </mxCell>
        <mxCell id="yIjfsGvirl62rjQTb2FM-7" value="" style="edgeStyle=orthogonalEdgeStyle;rounded=0;orthogonalLoop=1;jettySize=auto;html=1;" edge="1" parent="1" source="yIjfsGvirl62rjQTb2FM-9" target="yIjfsGvirl62rjQTb2FM-3">
          <mxGeometry relative="1" as="geometry" />
        </mxCell>
        <mxCell id="yIjfsGvirl62rjQTb2FM-24" value="抽象" style="edgeLabel;html=1;align=center;verticalAlign=middle;resizable=0;points=[];" vertex="1" connectable="0" parent="yIjfsGvirl62rjQTb2FM-7">
          <mxGeometry x="-0.4549" y="4" relative="1" as="geometry">
            <mxPoint as="offset" />
          </mxGeometry>
        </mxCell>
        <mxCell id="yIjfsGvirl62rjQTb2FM-8" value="" style="edgeStyle=orthogonalEdgeStyle;rounded=0;orthogonalLoop=1;jettySize=auto;html=1;" edge="1" parent="1" source="yIjfsGvirl62rjQTb2FM-9" target="yIjfsGvirl62rjQTb2FM-14">
          <mxGeometry relative="1" as="geometry" />
        </mxCell>
        <mxCell id="yIjfsGvirl62rjQTb2FM-9" value="FS" style="rounded=0;whiteSpace=wrap;html=1;" vertex="1" parent="1">
          <mxGeometry x="720" y="880" width="120" height="60" as="geometry" />
        </mxCell>
        <mxCell id="yIjfsGvirl62rjQTb2FM-10" style="edgeStyle=orthogonalEdgeStyle;rounded=0;orthogonalLoop=1;jettySize=auto;html=1;entryX=0.5;entryY=1;entryDx=0;entryDy=0;" edge="1" parent="1" source="yIjfsGvirl62rjQTb2FM-21" target="yIjfsGvirl62rjQTb2FM-6">
          <mxGeometry relative="1" as="geometry" />
        </mxCell>
        <mxCell id="yIjfsGvirl62rjQTb2FM-11" value="&lt;font style=&quot;font-size: 18px;&quot;&gt;refine&lt;/font&gt;" style="edgeLabel;html=1;align=center;verticalAlign=middle;resizable=0;points=[];" vertex="1" connectable="0" parent="yIjfsGvirl62rjQTb2FM-10">
          <mxGeometry x="0.1169" y="-1" relative="1" as="geometry">
            <mxPoint x="24" y="1" as="offset" />
          </mxGeometry>
        </mxCell>
        <mxCell id="yIjfsGvirl62rjQTb2FM-13" style="edgeStyle=orthogonalEdgeStyle;rounded=0;orthogonalLoop=1;jettySize=auto;html=1;exitX=0.5;exitY=1;exitDx=0;exitDy=0;entryX=0.5;entryY=0;entryDx=0;entryDy=0;" edge="1" parent="1" source="yIjfsGvirl62rjQTb2FM-14" target="yIjfsGvirl62rjQTb2FM-3">
          <mxGeometry relative="1" as="geometry" />
        </mxCell>
        <mxCell id="yIjfsGvirl62rjQTb2FM-23" value="架构细化" style="edgeLabel;html=1;align=center;verticalAlign=middle;resizable=0;points=[];" vertex="1" connectable="0" parent="yIjfsGvirl62rjQTb2FM-13">
          <mxGeometry x="-0.1299" y="2" relative="1" as="geometry">
            <mxPoint as="offset" />
          </mxGeometry>
        </mxCell>
        <mxCell id="nej1GL7O0t57ezvfqDkV-2" style="edgeStyle=orthogonalEdgeStyle;rounded=0;orthogonalLoop=1;jettySize=auto;html=1;exitX=1;exitY=0.5;exitDx=0;exitDy=0;entryX=0;entryY=0.5;entryDx=0;entryDy=0;" edge="1" parent="1" source="yIjfsGvirl62rjQTb2FM-20" target="nej1GL7O0t57ezvfqDkV-1">
          <mxGeometry relative="1" as="geometry" />
        </mxCell>
        <mxCell id="yIjfsGvirl62rjQTb2FM-14" value="AS" style="rounded=0;whiteSpace=wrap;html=1;" vertex="1" parent="1">
          <mxGeometry x="960" y="880" width="120" height="60" as="geometry" />
        </mxCell>
        <mxCell id="yIjfsGvirl62rjQTb2FM-15" value="" style="edgeStyle=orthogonalEdgeStyle;rounded=0;orthogonalLoop=1;jettySize=auto;html=1;" edge="1" parent="1" source="yIjfsGvirl62rjQTb2FM-16" target="yIjfsGvirl62rjQTb2FM-6">
          <mxGeometry relative="1" as="geometry" />
        </mxCell>
        <mxCell id="yIjfsGvirl62rjQTb2FM-16" value="产品需求" style="rounded=0;whiteSpace=wrap;html=1;" vertex="1" parent="1">
          <mxGeometry x="254" y="880" width="120" height="60" as="geometry" />
        </mxCell>
        <mxCell id="yIjfsGvirl62rjQTb2FM-17" style="edgeStyle=orthogonalEdgeStyle;rounded=0;orthogonalLoop=1;jettySize=auto;html=1;exitX=0.5;exitY=1;exitDx=0;exitDy=0;entryX=0.5;entryY=0;entryDx=0;entryDy=0;" edge="1" parent="1" source="yIjfsGvirl62rjQTb2FM-18" target="yIjfsGvirl62rjQTb2FM-21">
          <mxGeometry relative="1" as="geometry" />
        </mxCell>
        <mxCell id="yIjfsGvirl62rjQTb2FM-18" value="仿真数据" style="ellipse;whiteSpace=wrap;html=1;" vertex="1" parent="1">
          <mxGeometry x="720" y="1144" width="120" height="80" as="geometry" />
        </mxCell>
        <mxCell id="yIjfsGvirl62rjQTb2FM-19" value="" style="edgeStyle=orthogonalEdgeStyle;rounded=0;orthogonalLoop=1;jettySize=auto;html=1;" edge="1" parent="1" source="yIjfsGvirl62rjQTb2FM-20" target="yIjfsGvirl62rjQTb2FM-4">
          <mxGeometry relative="1" as="geometry" />
        </mxCell>
        <mxCell id="yIjfsGvirl62rjQTb2FM-21" value="仿真结果" style="ellipse;whiteSpace=wrap;html=1;" vertex="1" parent="1">
          <mxGeometry x="720" y="1258" width="120" height="80" as="geometry" />
        </mxCell>
        <mxCell id="yIjfsGvirl62rjQTb2FM-25" value="" style="edgeStyle=orthogonalEdgeStyle;rounded=0;orthogonalLoop=1;jettySize=auto;html=1;" edge="1" parent="1" source="yIjfsGvirl62rjQTb2FM-22" target="yIjfsGvirl62rjQTb2FM-3">
          <mxGeometry relative="1" as="geometry" />
        </mxCell>
        <mxCell id="zm_Kan_0pNW6FtzJlPLX-3" style="edgeStyle=orthogonalEdgeStyle;rounded=0;orthogonalLoop=1;jettySize=auto;html=1;exitX=0;exitY=0.5;exitDx=0;exitDy=0;entryX=0.5;entryY=1;entryDx=0;entryDy=0;" edge="1" parent="1" source="yIjfsGvirl62rjQTb2FM-22" target="yIjfsGvirl62rjQTb2FM-6">
          <mxGeometry relative="1" as="geometry" />
        </mxCell>
        <mxCell id="yIjfsGvirl62rjQTb2FM-22" value="dummy模型" style="rounded=0;whiteSpace=wrap;html=1;fillColor=#d5e8d4;strokeColor=#82b366;" vertex="1" parent="1">
          <mxGeometry x="527" y="1040" width="120" height="60" as="geometry" />
        </mxCell>
        <mxCell id="nej1GL7O0t57ezvfqDkV-7" value="" style="edgeStyle=orthogonalEdgeStyle;rounded=0;orthogonalLoop=1;jettySize=auto;html=1;" edge="1" parent="1" source="nej1GL7O0t57ezvfqDkV-1" target="nej1GL7O0t57ezvfqDkV-6">
          <mxGeometry relative="1" as="geometry" />
        </mxCell>
        <mxCell id="nej1GL7O0t57ezvfqDkV-1" value="EMU验证" style="rounded=0;whiteSpace=wrap;html=1;" vertex="1" parent="1">
          <mxGeometry x="1230" y="880" width="120" height="60" as="geometry" />
        </mxCell>
        <mxCell id="nej1GL7O0t57ezvfqDkV-3" value="full-chip功能模型" style="rounded=0;whiteSpace=wrap;html=1;fillColor=#d5e8d4;strokeColor=#82b366;" vertex="1" parent="1">
          <mxGeometry x="1450" y="1040" width="120" height="60" as="geometry" />
        </mxCell>
        <mxCell id="nej1GL7O0t57ezvfqDkV-4" value="" style="edgeStyle=orthogonalEdgeStyle;rounded=0;orthogonalLoop=1;jettySize=auto;html=1;exitX=1;exitY=0.5;exitDx=0;exitDy=0;entryX=0;entryY=0.5;entryDx=0;entryDy=0;" edge="1" parent="1" source="yIjfsGvirl62rjQTb2FM-14" target="yIjfsGvirl62rjQTb2FM-20">
          <mxGeometry relative="1" as="geometry">
            <mxPoint x="1080" y="910" as="sourcePoint" />
            <mxPoint x="1216" y="910" as="targetPoint" />
          </mxGeometry>
        </mxCell>
        <mxCell id="yIjfsGvirl62rjQTb2FM-20" value="寄存器" style="shape=document;whiteSpace=wrap;html=1;boundedLbl=1;" vertex="1" parent="1">
          <mxGeometry x="1111" y="885" width="80" height="50" as="geometry" />
        </mxCell>
        <mxCell id="nej1GL7O0t57ezvfqDkV-6" value="Tapout" style="rounded=0;whiteSpace=wrap;html=1;" vertex="1" parent="1">
          <mxGeometry x="1450" y="880" width="120" height="60" as="geometry" />
        </mxCell>
        <mxCell id="nej1GL7O0t57ezvfqDkV-9" value="" style="endArrow=oval;html=1;rounded=0;startArrow=oval;startFill=1;endFill=1;" edge="1" parent="1" target="nej1GL7O0t57ezvfqDkV-1">
          <mxGeometry width="50" height="50" relative="1" as="geometry">
            <mxPoint x="1290" y="1070" as="sourcePoint" />
            <mxPoint x="1340" y="1110" as="targetPoint" />
          </mxGeometry>
        </mxCell>
        <mxCell id="nej1GL7O0t57ezvfqDkV-10" value="交叉验证" style="edgeLabel;html=1;align=center;verticalAlign=middle;resizable=0;points=[];" vertex="1" connectable="0" parent="nej1GL7O0t57ezvfqDkV-9">
          <mxGeometry x="0.2042" relative="1" as="geometry">
            <mxPoint as="offset" />
          </mxGeometry>
        </mxCell>
        <mxCell id="zm_Kan_0pNW6FtzJlPLX-1" value="" style="endArrow=classic;html=1;rounded=0;" edge="1" parent="1" target="yIjfsGvirl62rjQTb2FM-22">
          <mxGeometry width="50" height="50" relative="1" as="geometry">
            <mxPoint x="587" y="910" as="sourcePoint" />
            <mxPoint x="777" y="600" as="targetPoint" />
          </mxGeometry>
        </mxCell>
        <mxCell id="zm_Kan_0pNW6FtzJlPLX-4" value="粗粒度" style="edgeLabel;html=1;align=center;verticalAlign=middle;resizable=0;points=[];" vertex="1" connectable="0" parent="zm_Kan_0pNW6FtzJlPLX-1">
          <mxGeometry x="-0.0205" y="-2" relative="1" as="geometry">
            <mxPoint as="offset" />
          </mxGeometry>
        </mxCell>
        <mxCell id="34P115oinnlMbj9ndfAj-1" value="evolution" style="html=1;verticalAlign=bottom;startArrow=circle;startFill=1;endArrow=open;startSize=6;endSize=8;curved=0;rounded=0;" edge="1" parent="1">
          <mxGeometry width="80" relative="1" as="geometry">
            <mxPoint x="225" y="1722" as="sourcePoint" />
            <mxPoint x="435" y="1722" as="targetPoint" />
          </mxGeometry>
        </mxCell>
        <mxCell id="34P115oinnlMbj9ndfAj-2" value="TR1" style="shape=umlBoundary;whiteSpace=wrap;html=1;" vertex="1" parent="1">
          <mxGeometry x="435" y="1697" width="60" height="50" as="geometry" />
        </mxCell>
        <mxCell id="34P115oinnlMbj9ndfAj-3" value="TR2" style="shape=umlBoundary;whiteSpace=wrap;html=1;" vertex="1" parent="1">
          <mxGeometry x="705" y="1697" width="60" height="50" as="geometry" />
        </mxCell>
        <mxCell id="34P115oinnlMbj9ndfAj-4" value="evolution" style="html=1;verticalAlign=bottom;startArrow=circle;startFill=1;endArrow=open;startSize=6;endSize=8;curved=0;rounded=0;" edge="1" parent="1">
          <mxGeometry width="80" relative="1" as="geometry">
            <mxPoint x="495" y="1721.6599999999999" as="sourcePoint" />
            <mxPoint x="705" y="1721.6599999999999" as="targetPoint" />
          </mxGeometry>
        </mxCell>
        <mxCell id="34P115oinnlMbj9ndfAj-5" value="TR3" style="shape=umlBoundary;whiteSpace=wrap;html=1;" vertex="1" parent="1">
          <mxGeometry x="975" y="1697" width="60" height="50" as="geometry" />
        </mxCell>
        <mxCell id="34P115oinnlMbj9ndfAj-6" value="evolution" style="html=1;verticalAlign=bottom;startArrow=circle;startFill=1;endArrow=open;startSize=6;endSize=8;curved=0;rounded=0;" edge="1" parent="1">
          <mxGeometry width="80" relative="1" as="geometry">
            <mxPoint x="765" y="1721.6599999999999" as="sourcePoint" />
            <mxPoint x="975" y="1721.6599999999999" as="targetPoint" />
          </mxGeometry>
        </mxCell>
        <mxCell id="34P115oinnlMbj9ndfAj-7" value="85%" style="shape=umlBoundary;whiteSpace=wrap;html=1;" vertex="1" parent="1">
          <mxGeometry x="1176" y="1697" width="60" height="50" as="geometry" />
        </mxCell>
        <mxCell id="34P115oinnlMbj9ndfAj-8" value="evolution" style="html=1;verticalAlign=bottom;startArrow=circle;startFill=1;endArrow=open;startSize=6;endSize=8;curved=0;rounded=0;" edge="1" parent="1">
          <mxGeometry width="80" relative="1" as="geometry">
            <mxPoint x="1035" y="1721.6599999999999" as="sourcePoint" />
            <mxPoint x="1175" y="1722" as="targetPoint" />
          </mxGeometry>
        </mxCell>
        <mxCell id="34P115oinnlMbj9ndfAj-9" value="95%" style="shape=umlBoundary;whiteSpace=wrap;html=1;" vertex="1" parent="1">
          <mxGeometry x="1335" y="1697" width="60" height="50" as="geometry" />
        </mxCell>
        <mxCell id="34P115oinnlMbj9ndfAj-10" value="evolution" style="html=1;verticalAlign=bottom;startArrow=circle;startFill=1;endArrow=open;startSize=6;endSize=8;curved=0;rounded=0;" edge="1" parent="1">
          <mxGeometry width="80" relative="1" as="geometry">
            <mxPoint x="1236" y="1721.6599999999999" as="sourcePoint" />
            <mxPoint x="1335" y="1722" as="targetPoint" />
          </mxGeometry>
        </mxCell>
        <mxCell id="34P115oinnlMbj9ndfAj-11" value="100%" style="shape=umlBoundary;whiteSpace=wrap;html=1;" vertex="1" parent="1">
          <mxGeometry x="1465" y="1697" width="60" height="50" as="geometry" />
        </mxCell>
        <mxCell id="34P115oinnlMbj9ndfAj-12" value="evolution" style="html=1;verticalAlign=bottom;startArrow=circle;startFill=1;endArrow=open;startSize=6;endSize=8;curved=0;rounded=0;" edge="1" parent="1">
          <mxGeometry width="80" relative="1" as="geometry">
            <mxPoint x="1395" y="1721.6599999999999" as="sourcePoint" />
            <mxPoint x="1465" y="1722" as="targetPoint" />
          </mxGeometry>
        </mxCell>
        <mxCell id="34P115oinnlMbj9ndfAj-13" value="ESL 性能模型" style="endArrow=block;endSize=16;endFill=0;html=1;rounded=0;entryX=0.5;entryY=0.5;entryDx=0;entryDy=0;entryPerimeter=0;" edge="1" parent="1">
          <mxGeometry width="160" relative="1" as="geometry">
            <mxPoint x="235" y="1792" as="sourcePoint" />
            <mxPoint x="1005" y="1787" as="targetPoint" />
          </mxGeometry>
        </mxCell>
        <mxCell id="34P115oinnlMbj9ndfAj-14" value="ESL 架构模型" style="endArrow=block;endSize=16;endFill=0;html=1;rounded=0;entryX=0.5;entryY=0.5;entryDx=0;entryDy=0;entryPerimeter=0;" edge="1" parent="1">
          <mxGeometry width="160" relative="1" as="geometry">
            <mxPoint x="1005" y="1787" as="sourcePoint" />
            <mxPoint x="1206" y="1787" as="targetPoint" />
          </mxGeometry>
        </mxCell>
        <mxCell id="34P115oinnlMbj9ndfAj-15" value="ESL full-chip功能模型" style="endArrow=block;endSize=16;endFill=0;html=1;rounded=0;entryX=0.5;entryY=0.5;entryDx=0;entryDy=0;entryPerimeter=0;" edge="1" parent="1">
          <mxGeometry width="160" relative="1" as="geometry">
            <mxPoint x="1205" y="1786.58" as="sourcePoint" />
            <mxPoint x="1495" y="1787" as="targetPoint" />
          </mxGeometry>
        </mxCell>
        <mxCell id="34P115oinnlMbj9ndfAj-16" value="&amp;nbsp; &amp;nbsp;charter" style="shape=umlLifeline;perimeter=lifelinePerimeter;whiteSpace=wrap;html=1;container=1;dropTarget=0;collapsible=0;recursiveResize=0;outlineConnect=0;portConstraint=eastwest;newEdgeStyle={&quot;curved&quot;:0,&quot;rounded&quot;:0};participant=umlBoundary;" vertex="1" parent="1">
          <mxGeometry x="195" y="1650" width="70" height="78" as="geometry" />
        </mxCell>
        <mxCell id="34P115oinnlMbj9ndfAj-17" value="" style="line;strokeWidth=2;direction=south;html=1;" vertex="1" parent="1">
          <mxGeometry x="1000" y="1747" width="10" height="85" as="geometry" />
        </mxCell>
        <mxCell id="34P115oinnlMbj9ndfAj-18" value="" style="line;strokeWidth=2;direction=south;html=1;" vertex="1" parent="1">
          <mxGeometry x="229" y="1747" width="10" height="85" as="geometry" />
        </mxCell>
        <mxCell id="34P115oinnlMbj9ndfAj-19" value="" style="line;strokeWidth=2;direction=south;html=1;" vertex="1" parent="1">
          <mxGeometry x="1201" y="1747" width="10" height="85" as="geometry" />
        </mxCell>
        <mxCell id="34P115oinnlMbj9ndfAj-20" value="" style="line;strokeWidth=2;direction=south;html=1;" vertex="1" parent="1">
          <mxGeometry x="1490" y="1747" width="10" height="85" as="geometry" />
        </mxCell>
        <mxCell id="34P115oinnlMbj9ndfAj-21" value="" style="edgeStyle=orthogonalEdgeStyle;rounded=0;orthogonalLoop=1;jettySize=auto;html=1;entryX=0.5;entryY=0;entryDx=0;entryDy=0;" edge="1" parent="1" source="34P115oinnlMbj9ndfAj-23" target="34P115oinnlMbj9ndfAj-41">
          <mxGeometry relative="1" as="geometry">
            <mxPoint x="689" y="2160" as="targetPoint" />
          </mxGeometry>
        </mxCell>
        <mxCell id="34P115oinnlMbj9ndfAj-22" value="" style="edgeStyle=orthogonalEdgeStyle;rounded=0;orthogonalLoop=1;jettySize=auto;html=1;" edge="1" parent="1" source="34P115oinnlMbj9ndfAj-57" target="34P115oinnlMbj9ndfAj-25">
          <mxGeometry relative="1" as="geometry" />
        </mxCell>
        <mxCell id="34P115oinnlMbj9ndfAj-23" value="性能模型" style="rounded=0;whiteSpace=wrap;html=1;fillColor=#d5e8d4;strokeColor=#82b366;" vertex="1" parent="1">
          <mxGeometry x="705" y="2020" width="120" height="60" as="geometry" />
        </mxCell>
        <mxCell id="34P115oinnlMbj9ndfAj-24" style="edgeStyle=orthogonalEdgeStyle;rounded=0;orthogonalLoop=1;jettySize=auto;html=1;exitX=1;exitY=0.5;exitDx=0;exitDy=0;entryX=0;entryY=0.5;entryDx=0;entryDy=0;" edge="1" parent="1" source="34P115oinnlMbj9ndfAj-25" target="34P115oinnlMbj9ndfAj-49">
          <mxGeometry relative="1" as="geometry" />
        </mxCell>
        <mxCell id="34P115oinnlMbj9ndfAj-25" value="功能模型" style="rounded=0;whiteSpace=wrap;html=1;fillColor=#d5e8d4;strokeColor=#82b366;" vertex="1" parent="1">
          <mxGeometry x="1211" y="2020" width="120" height="60" as="geometry" />
        </mxCell>
        <mxCell id="34P115oinnlMbj9ndfAj-26" value="" style="edgeStyle=orthogonalEdgeStyle;rounded=0;orthogonalLoop=1;jettySize=auto;html=1;" edge="1" parent="1" target="34P115oinnlMbj9ndfAj-31">
          <mxGeometry relative="1" as="geometry">
            <mxPoint x="529" y="1890" as="sourcePoint" />
          </mxGeometry>
        </mxCell>
        <mxCell id="34P115oinnlMbj9ndfAj-27" value="架构设计" style="rounded=0;whiteSpace=wrap;html=1;" vertex="1" parent="1">
          <mxGeometry x="419" y="1860" width="120" height="60" as="geometry" />
        </mxCell>
        <mxCell id="34P115oinnlMbj9ndfAj-28" value="" style="edgeStyle=orthogonalEdgeStyle;rounded=0;orthogonalLoop=1;jettySize=auto;html=1;" edge="1" parent="1" source="34P115oinnlMbj9ndfAj-31" target="34P115oinnlMbj9ndfAj-23">
          <mxGeometry relative="1" as="geometry" />
        </mxCell>
        <mxCell id="34P115oinnlMbj9ndfAj-29" value="抽象" style="edgeLabel;html=1;align=center;verticalAlign=middle;resizable=0;points=[];" vertex="1" connectable="0" parent="34P115oinnlMbj9ndfAj-28">
          <mxGeometry x="-0.4549" y="4" relative="1" as="geometry">
            <mxPoint as="offset" />
          </mxGeometry>
        </mxCell>
        <mxCell id="34P115oinnlMbj9ndfAj-30" value="" style="edgeStyle=orthogonalEdgeStyle;rounded=0;orthogonalLoop=1;jettySize=auto;html=1;" edge="1" parent="1" source="34P115oinnlMbj9ndfAj-31" target="34P115oinnlMbj9ndfAj-37">
          <mxGeometry relative="1" as="geometry" />
        </mxCell>
        <mxCell id="34P115oinnlMbj9ndfAj-31" value="FS" style="rounded=0;whiteSpace=wrap;html=1;" vertex="1" parent="1">
          <mxGeometry x="705" y="1860" width="120" height="60" as="geometry" />
        </mxCell>
        <mxCell id="34P115oinnlMbj9ndfAj-32" style="edgeStyle=orthogonalEdgeStyle;rounded=0;orthogonalLoop=1;jettySize=auto;html=1;entryX=0.5;entryY=1;entryDx=0;entryDy=0;" edge="1" parent="1" source="34P115oinnlMbj9ndfAj-43" target="34P115oinnlMbj9ndfAj-27">
          <mxGeometry relative="1" as="geometry" />
        </mxCell>
        <mxCell id="34P115oinnlMbj9ndfAj-33" value="&lt;font style=&quot;font-size: 18px;&quot;&gt;refine&lt;/font&gt;" style="edgeLabel;html=1;align=center;verticalAlign=middle;resizable=0;points=[];" vertex="1" connectable="0" parent="34P115oinnlMbj9ndfAj-32">
          <mxGeometry x="0.1169" y="-1" relative="1" as="geometry">
            <mxPoint x="24" y="1" as="offset" />
          </mxGeometry>
        </mxCell>
        <mxCell id="34P115oinnlMbj9ndfAj-34" style="edgeStyle=orthogonalEdgeStyle;rounded=0;orthogonalLoop=1;jettySize=auto;html=1;exitX=0.5;exitY=1;exitDx=0;exitDy=0;" edge="1" parent="1" source="34P115oinnlMbj9ndfAj-37" target="34P115oinnlMbj9ndfAj-57">
          <mxGeometry relative="1" as="geometry" />
        </mxCell>
        <mxCell id="34P115oinnlMbj9ndfAj-35" value="微架构对齐" style="edgeLabel;html=1;align=center;verticalAlign=middle;resizable=0;points=[];" vertex="1" connectable="0" parent="34P115oinnlMbj9ndfAj-34">
          <mxGeometry x="-0.1299" y="2" relative="1" as="geometry">
            <mxPoint as="offset" />
          </mxGeometry>
        </mxCell>
        <mxCell id="34P115oinnlMbj9ndfAj-36" style="edgeStyle=orthogonalEdgeStyle;rounded=0;orthogonalLoop=1;jettySize=auto;html=1;exitX=1;exitY=0.5;exitDx=0;exitDy=0;entryX=0;entryY=0.5;entryDx=0;entryDy=0;" edge="1" parent="1" source="34P115oinnlMbj9ndfAj-51" target="34P115oinnlMbj9ndfAj-48">
          <mxGeometry relative="1" as="geometry" />
        </mxCell>
        <mxCell id="34P115oinnlMbj9ndfAj-37" value="AS" style="rounded=0;whiteSpace=wrap;html=1;" vertex="1" parent="1">
          <mxGeometry x="945" y="1860" width="120" height="60" as="geometry" />
        </mxCell>
        <mxCell id="34P115oinnlMbj9ndfAj-38" value="" style="edgeStyle=orthogonalEdgeStyle;rounded=0;orthogonalLoop=1;jettySize=auto;html=1;" edge="1" parent="1" source="34P115oinnlMbj9ndfAj-39" target="34P115oinnlMbj9ndfAj-27">
          <mxGeometry relative="1" as="geometry" />
        </mxCell>
        <mxCell id="34P115oinnlMbj9ndfAj-39" value="产品需求" style="rounded=0;whiteSpace=wrap;html=1;" vertex="1" parent="1">
          <mxGeometry x="239" y="1860" width="120" height="60" as="geometry" />
        </mxCell>
        <mxCell id="34P115oinnlMbj9ndfAj-40" style="edgeStyle=orthogonalEdgeStyle;rounded=0;orthogonalLoop=1;jettySize=auto;html=1;exitX=0.5;exitY=1;exitDx=0;exitDy=0;entryX=0.5;entryY=0;entryDx=0;entryDy=0;" edge="1" parent="1" source="34P115oinnlMbj9ndfAj-41" target="34P115oinnlMbj9ndfAj-43">
          <mxGeometry relative="1" as="geometry" />
        </mxCell>
        <mxCell id="34P115oinnlMbj9ndfAj-41" value="仿真数据" style="ellipse;whiteSpace=wrap;html=1;" vertex="1" parent="1">
          <mxGeometry x="705" y="2124" width="120" height="80" as="geometry" />
        </mxCell>
        <mxCell id="34P115oinnlMbj9ndfAj-42" value="" style="edgeStyle=orthogonalEdgeStyle;rounded=0;orthogonalLoop=1;jettySize=auto;html=1;exitX=1;exitY=0.5;exitDx=0;exitDy=0;" edge="1" parent="1" source="34P115oinnlMbj9ndfAj-51" target="34P115oinnlMbj9ndfAj-25">
          <mxGeometry relative="1" as="geometry">
            <Array as="points">
              <mxPoint x="1190" y="1890" />
              <mxPoint x="1190" y="1960" />
              <mxPoint x="1271" y="1960" />
            </Array>
          </mxGeometry>
        </mxCell>
        <mxCell id="34P115oinnlMbj9ndfAj-43" value="仿真结果" style="ellipse;whiteSpace=wrap;html=1;" vertex="1" parent="1">
          <mxGeometry x="705" y="2238" width="120" height="80" as="geometry" />
        </mxCell>
        <mxCell id="34P115oinnlMbj9ndfAj-44" value="" style="edgeStyle=orthogonalEdgeStyle;rounded=0;orthogonalLoop=1;jettySize=auto;html=1;" edge="1" parent="1" source="34P115oinnlMbj9ndfAj-46" target="34P115oinnlMbj9ndfAj-23">
          <mxGeometry relative="1" as="geometry" />
        </mxCell>
        <mxCell id="34P115oinnlMbj9ndfAj-45" style="edgeStyle=orthogonalEdgeStyle;rounded=0;orthogonalLoop=1;jettySize=auto;html=1;exitX=0;exitY=0.5;exitDx=0;exitDy=0;entryX=0.5;entryY=1;entryDx=0;entryDy=0;" edge="1" parent="1" source="34P115oinnlMbj9ndfAj-46" target="34P115oinnlMbj9ndfAj-27">
          <mxGeometry relative="1" as="geometry" />
        </mxCell>
        <mxCell id="34P115oinnlMbj9ndfAj-46" value="dummy模型" style="rounded=0;whiteSpace=wrap;html=1;fillColor=#d5e8d4;strokeColor=#82b366;" vertex="1" parent="1">
          <mxGeometry x="512" y="2020" width="120" height="60" as="geometry" />
        </mxCell>
        <mxCell id="34P115oinnlMbj9ndfAj-47" value="" style="edgeStyle=orthogonalEdgeStyle;rounded=0;orthogonalLoop=1;jettySize=auto;html=1;" edge="1" parent="1" source="34P115oinnlMbj9ndfAj-48" target="34P115oinnlMbj9ndfAj-52">
          <mxGeometry relative="1" as="geometry" />
        </mxCell>
        <mxCell id="34P115oinnlMbj9ndfAj-48" value="EMU验证" style="rounded=0;whiteSpace=wrap;html=1;" vertex="1" parent="1">
          <mxGeometry x="1211" y="1860" width="120" height="60" as="geometry" />
        </mxCell>
        <mxCell id="34P115oinnlMbj9ndfAj-49" value="full-chip功能模型" style="rounded=0;whiteSpace=wrap;html=1;fillColor=#d5e8d4;strokeColor=#82b366;" vertex="1" parent="1">
          <mxGeometry x="1435" y="2020" width="120" height="60" as="geometry" />
        </mxCell>
        <mxCell id="34P115oinnlMbj9ndfAj-50" value="" style="edgeStyle=orthogonalEdgeStyle;rounded=0;orthogonalLoop=1;jettySize=auto;html=1;exitX=1;exitY=0.5;exitDx=0;exitDy=0;entryX=0;entryY=0.5;entryDx=0;entryDy=0;" edge="1" parent="1" source="34P115oinnlMbj9ndfAj-37" target="34P115oinnlMbj9ndfAj-51">
          <mxGeometry relative="1" as="geometry">
            <mxPoint x="1065" y="1890" as="sourcePoint" />
            <mxPoint x="1201" y="1890" as="targetPoint" />
          </mxGeometry>
        </mxCell>
        <mxCell id="34P115oinnlMbj9ndfAj-51" value="寄存器" style="shape=document;whiteSpace=wrap;html=1;boundedLbl=1;" vertex="1" parent="1">
          <mxGeometry x="1096" y="1865" width="80" height="50" as="geometry" />
        </mxCell>
        <mxCell id="34P115oinnlMbj9ndfAj-52" value="Tapout" style="rounded=0;whiteSpace=wrap;html=1;" vertex="1" parent="1">
          <mxGeometry x="1435" y="1860" width="120" height="60" as="geometry" />
        </mxCell>
        <mxCell id="34P115oinnlMbj9ndfAj-53" value="" style="endArrow=oval;html=1;rounded=0;startArrow=oval;startFill=1;endFill=1;entryX=0.75;entryY=1;entryDx=0;entryDy=0;exitX=0.75;exitY=0;exitDx=0;exitDy=0;" edge="1" parent="1" target="34P115oinnlMbj9ndfAj-48" source="34P115oinnlMbj9ndfAj-25">
          <mxGeometry width="50" height="50" relative="1" as="geometry">
            <mxPoint x="1240" y="2000" as="sourcePoint" />
            <mxPoint x="1325" y="2090" as="targetPoint" />
          </mxGeometry>
        </mxCell>
        <mxCell id="34P115oinnlMbj9ndfAj-54" value="交叉验证" style="edgeLabel;html=1;align=center;verticalAlign=middle;resizable=0;points=[];" vertex="1" connectable="0" parent="34P115oinnlMbj9ndfAj-53">
          <mxGeometry x="0.2042" relative="1" as="geometry">
            <mxPoint x="5" y="10" as="offset" />
          </mxGeometry>
        </mxCell>
        <mxCell id="34P115oinnlMbj9ndfAj-55" value="" style="endArrow=classic;html=1;rounded=0;" edge="1" parent="1" target="34P115oinnlMbj9ndfAj-46">
          <mxGeometry width="50" height="50" relative="1" as="geometry">
            <mxPoint x="572" y="1890" as="sourcePoint" />
            <mxPoint x="762" y="1580" as="targetPoint" />
          </mxGeometry>
        </mxCell>
        <mxCell id="34P115oinnlMbj9ndfAj-56" value="粗粒度" style="edgeLabel;html=1;align=center;verticalAlign=middle;resizable=0;points=[];" vertex="1" connectable="0" parent="34P115oinnlMbj9ndfAj-55">
          <mxGeometry x="-0.0205" y="-2" relative="1" as="geometry">
            <mxPoint as="offset" />
          </mxGeometry>
        </mxCell>
        <mxCell id="34P115oinnlMbj9ndfAj-59" value="" style="edgeStyle=orthogonalEdgeStyle;rounded=0;orthogonalLoop=1;jettySize=auto;html=1;" edge="1" parent="1" source="34P115oinnlMbj9ndfAj-23" target="34P115oinnlMbj9ndfAj-57">
          <mxGeometry relative="1" as="geometry">
            <mxPoint x="825" y="2050" as="sourcePoint" />
            <mxPoint x="1215" y="2050" as="targetPoint" />
          </mxGeometry>
        </mxCell>
        <mxCell id="34P115oinnlMbj9ndfAj-60" style="edgeStyle=orthogonalEdgeStyle;rounded=0;orthogonalLoop=1;jettySize=auto;html=1;exitX=0.5;exitY=1;exitDx=0;exitDy=0;entryX=1;entryY=0.5;entryDx=0;entryDy=0;" edge="1" parent="1" source="34P115oinnlMbj9ndfAj-57" target="34P115oinnlMbj9ndfAj-41">
          <mxGeometry relative="1" as="geometry" />
        </mxCell>
        <mxCell id="34P115oinnlMbj9ndfAj-61" value="系统性能用例" style="edgeLabel;html=1;align=center;verticalAlign=middle;resizable=0;points=[];" vertex="1" connectable="0" parent="34P115oinnlMbj9ndfAj-60">
          <mxGeometry x="-0.0522" relative="1" as="geometry">
            <mxPoint as="offset" />
          </mxGeometry>
        </mxCell>
        <mxCell id="34P115oinnlMbj9ndfAj-57" value="架构模型" style="rounded=0;whiteSpace=wrap;html=1;fillColor=#d5e8d4;strokeColor=#82b366;" vertex="1" parent="1">
          <mxGeometry x="945" y="2020" width="120" height="60" as="geometry" />
        </mxCell>
        <mxCell id="34P115oinnlMbj9ndfAj-62" value="ESL 功能模型" style="endArrow=block;endSize=16;endFill=0;html=1;rounded=0;entryX=0.5;entryY=0.5;entryDx=0;entryDy=0;entryPerimeter=0;" edge="1" parent="1">
          <mxGeometry width="160" relative="1" as="geometry">
            <mxPoint x="1059" y="1814" as="sourcePoint" />
            <mxPoint x="1206" y="1814" as="targetPoint" />
          </mxGeometry>
        </mxCell>
        <mxCell id="34P115oinnlMbj9ndfAj-63" value="" style="line;strokeWidth=1;direction=south;html=1;" vertex="1" parent="1">
          <mxGeometry x="1054" y="1787" width="10" height="33" as="geometry" />
        </mxCell>
      </root>
    </mxGraphModel>
  </diagram>
  <diagram id="w6WBiVXqibvXH4-J0ARN" name="性能模型">
    <mxGraphModel dx="2074" dy="1204" grid="1" gridSize="10" guides="1" tooltips="1" connect="1" arrows="1" fold="1" page="1" pageScale="1" pageWidth="827" pageHeight="1169" math="0" shadow="0">
      <root>
        <mxCell id="0" />
        <mxCell id="1" parent="0" />
        <mxCell id="ZmZpTsVnlMf0Hm5QGKhb-25" value="" style="group" vertex="1" connectable="0" parent="1">
          <mxGeometry x="290" y="780" width="742.0999999999999" height="532" as="geometry" />
        </mxCell>
        <mxCell id="kLKiAhd_ziZunWPBixO0-4" value="" style="group" vertex="1" connectable="0" parent="ZmZpTsVnlMf0Hm5QGKhb-25">
          <mxGeometry x="62.10000000000002" width="210" height="130" as="geometry" />
        </mxCell>
        <mxCell id="kLKiAhd_ziZunWPBixO0-3" value="&lt;span style=&quot;font-size: 24px;&quot;&gt;cpu&lt;/span&gt;" style="rounded=0;whiteSpace=wrap;html=1;fillColor=#d5e8d4;strokeColor=#82b366;strokeWidth=2;" vertex="1" parent="kLKiAhd_ziZunWPBixO0-4">
          <mxGeometry x="20" width="190" height="90" as="geometry" />
        </mxCell>
        <mxCell id="kLKiAhd_ziZunWPBixO0-2" value="&lt;span style=&quot;font-size: 24px;&quot;&gt;cpu&lt;/span&gt;" style="rounded=0;whiteSpace=wrap;html=1;fillColor=#d5e8d4;strokeColor=#82b366;strokeWidth=2;" vertex="1" parent="kLKiAhd_ziZunWPBixO0-4">
          <mxGeometry x="10" y="20" width="190" height="90" as="geometry" />
        </mxCell>
        <mxCell id="kLKiAhd_ziZunWPBixO0-1" value="&lt;font style=&quot;font-size: 24px;&quot;&gt;cpu0&lt;/font&gt;" style="rounded=0;whiteSpace=wrap;html=1;fillColor=#d5e8d4;strokeColor=#82b366;strokeWidth=2;" vertex="1" parent="kLKiAhd_ziZunWPBixO0-4">
          <mxGeometry y="40" width="190" height="90" as="geometry" />
        </mxCell>
        <mxCell id="kLKiAhd_ziZunWPBixO0-6" value="&lt;font style=&quot;font-size: 24px;&quot;&gt;NOC-Interconnect&lt;/font&gt;" style="rounded=0;whiteSpace=wrap;html=1;fillColor=#f8cecc;strokeColor=#b85450;strokeWidth=2;" vertex="1" parent="ZmZpTsVnlMf0Hm5QGKhb-25">
          <mxGeometry y="248" width="742.1" height="80" as="geometry" />
        </mxCell>
        <mxCell id="kLKiAhd_ziZunWPBixO0-8" value="&lt;font style=&quot;font-size: 24px;&quot;&gt;Custom IP&lt;/font&gt;" style="rounded=0;whiteSpace=wrap;html=1;fillColor=#dae8fc;strokeColor=#6c8ebf;strokeWidth=2;" vertex="1" parent="ZmZpTsVnlMf0Hm5QGKhb-25">
          <mxGeometry x="462.1" y="40" width="190" height="90" as="geometry" />
        </mxCell>
        <mxCell id="kLKiAhd_ziZunWPBixO0-9" value="&lt;font style=&quot;font-size: 24px;&quot;&gt;Peripherals&lt;/font&gt;" style="rounded=0;whiteSpace=wrap;html=1;fillColor=#f5f5f5;strokeColor=#666666;strokeWidth=2;fontColor=#333333;" vertex="1" parent="ZmZpTsVnlMf0Hm5QGKhb-25">
          <mxGeometry x="9" y="442" width="190" height="90" as="geometry" />
        </mxCell>
        <mxCell id="kLKiAhd_ziZunWPBixO0-10" value="&lt;font style=&quot;font-size: 24px;&quot;&gt;DRAM&lt;/font&gt;" style="rounded=0;whiteSpace=wrap;html=1;fillColor=#f5f5f5;strokeColor=#666666;strokeWidth=2;fontColor=#333333;" vertex="1" parent="ZmZpTsVnlMf0Hm5QGKhb-25">
          <mxGeometry x="262.1" y="442" width="190" height="90" as="geometry" />
        </mxCell>
        <mxCell id="kLKiAhd_ziZunWPBixO0-11" value="&lt;font style=&quot;font-size: 24px;&quot;&gt;Others&lt;/font&gt;" style="rounded=0;whiteSpace=wrap;html=1;fillColor=#f5f5f5;strokeColor=#666666;strokeWidth=2;fontColor=#333333;" vertex="1" parent="ZmZpTsVnlMf0Hm5QGKhb-25">
          <mxGeometry x="522.1" y="442" width="190" height="90" as="geometry" />
        </mxCell>
        <mxCell id="kLKiAhd_ziZunWPBixO0-12" value="" style="endArrow=classic;startArrow=classic;html=1;rounded=0;strokeWidth=3;exitX=0.206;exitY=-0.05;exitDx=0;exitDy=0;exitPerimeter=0;" edge="1" parent="ZmZpTsVnlMf0Hm5QGKhb-25" source="kLKiAhd_ziZunWPBixO0-6">
          <mxGeometry width="50" height="50" relative="1" as="geometry">
            <mxPoint x="152.10000000000002" y="230" as="sourcePoint" />
            <mxPoint x="152.10000000000002" y="130" as="targetPoint" />
          </mxGeometry>
        </mxCell>
        <mxCell id="ZmZpTsVnlMf0Hm5QGKhb-1" value="" style="endArrow=classic;startArrow=classic;html=1;rounded=0;strokeWidth=3;exitX=0.206;exitY=-0.05;exitDx=0;exitDy=0;exitPerimeter=0;" edge="1" parent="ZmZpTsVnlMf0Hm5QGKhb-25">
          <mxGeometry width="50" height="50" relative="1" as="geometry">
            <mxPoint x="557.6" y="246" as="sourcePoint" />
            <mxPoint x="556.6" y="130" as="targetPoint" />
          </mxGeometry>
        </mxCell>
        <mxCell id="ZmZpTsVnlMf0Hm5QGKhb-2" value="" style="endArrow=classic;startArrow=classic;html=1;rounded=0;strokeWidth=3;exitX=0.206;exitY=-0.05;exitDx=0;exitDy=0;exitPerimeter=0;" edge="1" parent="ZmZpTsVnlMf0Hm5QGKhb-25">
          <mxGeometry width="50" height="50" relative="1" as="geometry">
            <mxPoint x="101.54999999999995" y="442" as="sourcePoint" />
            <mxPoint x="100.54999999999995" y="328" as="targetPoint" />
          </mxGeometry>
        </mxCell>
        <mxCell id="ZmZpTsVnlMf0Hm5QGKhb-3" value="" style="endArrow=classic;startArrow=classic;html=1;rounded=0;strokeWidth=3;exitX=0.206;exitY=-0.05;exitDx=0;exitDy=0;exitPerimeter=0;" edge="1" parent="ZmZpTsVnlMf0Hm5QGKhb-25">
          <mxGeometry width="50" height="50" relative="1" as="geometry">
            <mxPoint x="357.9" y="442" as="sourcePoint" />
            <mxPoint x="356.9" y="328" as="targetPoint" />
          </mxGeometry>
        </mxCell>
        <mxCell id="ZmZpTsVnlMf0Hm5QGKhb-4" value="" style="endArrow=classic;startArrow=classic;html=1;rounded=0;strokeWidth=3;exitX=0.206;exitY=-0.05;exitDx=0;exitDy=0;exitPerimeter=0;" edge="1" parent="ZmZpTsVnlMf0Hm5QGKhb-25">
          <mxGeometry width="50" height="50" relative="1" as="geometry">
            <mxPoint x="610.1" y="442" as="sourcePoint" />
            <mxPoint x="609.1" y="328" as="targetPoint" />
          </mxGeometry>
        </mxCell>
        <mxCell id="ZmZpTsVnlMf0Hm5QGKhb-5" value="" style="rounded=1;whiteSpace=wrap;html=1;fillColor=#e1d5e7;strokeColor=#9673a6;strokeWidth=3;" vertex="1" parent="ZmZpTsVnlMf0Hm5QGKhb-25">
          <mxGeometry x="129.10000000000002" y="170" width="50" height="30" as="geometry" />
        </mxCell>
        <mxCell id="ZmZpTsVnlMf0Hm5QGKhb-13" value="" style="rounded=1;whiteSpace=wrap;html=1;fillColor=#e1d5e7;strokeColor=#9673a6;strokeWidth=3;" vertex="1" parent="ZmZpTsVnlMf0Hm5QGKhb-25">
          <mxGeometry x="532.1" y="169" width="50" height="30" as="geometry" />
        </mxCell>
        <mxCell id="ZmZpTsVnlMf0Hm5QGKhb-15" value="" style="rounded=1;whiteSpace=wrap;html=1;fillColor=#e1d5e7;strokeColor=#9673a6;strokeWidth=3;" vertex="1" parent="ZmZpTsVnlMf0Hm5QGKhb-25">
          <mxGeometry x="77.10000000000002" y="370" width="50" height="30" as="geometry" />
        </mxCell>
        <mxCell id="ZmZpTsVnlMf0Hm5QGKhb-17" value="" style="rounded=1;whiteSpace=wrap;html=1;fillColor=#e1d5e7;strokeColor=#9673a6;strokeWidth=3;" vertex="1" parent="ZmZpTsVnlMf0Hm5QGKhb-25">
          <mxGeometry x="333.1" y="370" width="50" height="30" as="geometry" />
        </mxCell>
        <mxCell id="ZmZpTsVnlMf0Hm5QGKhb-18" value="" style="rounded=1;whiteSpace=wrap;html=1;fillColor=#e1d5e7;strokeColor=#9673a6;strokeWidth=3;" vertex="1" parent="ZmZpTsVnlMf0Hm5QGKhb-25">
          <mxGeometry x="585.1" y="370" width="50" height="30" as="geometry" />
        </mxCell>
        <mxCell id="ZmZpTsVnlMf0Hm5QGKhb-19" value="" style="endArrow=classic;startArrow=classic;html=1;rounded=0;strokeWidth=3;fillColor=#f8cecc;strokeColor=#b85450;entryX=0;entryY=0.5;entryDx=0;entryDy=0;dashed=1;" edge="1" parent="ZmZpTsVnlMf0Hm5QGKhb-25" target="ZmZpTsVnlMf0Hm5QGKhb-17">
          <mxGeometry width="50" height="50" relative="1" as="geometry">
            <mxPoint x="129.10000000000002" y="384.5" as="sourcePoint" />
            <mxPoint x="259.1" y="384.5" as="targetPoint" />
          </mxGeometry>
        </mxCell>
        <mxCell id="ZmZpTsVnlMf0Hm5QGKhb-20" value="&lt;font style=&quot;font-size: 24px;&quot;&gt;monitor&lt;/font&gt;" style="edgeLabel;html=1;align=center;verticalAlign=middle;resizable=0;points=[];" vertex="1" connectable="0" parent="ZmZpTsVnlMf0Hm5QGKhb-19">
          <mxGeometry x="0.049" y="2" relative="1" as="geometry">
            <mxPoint as="offset" />
          </mxGeometry>
        </mxCell>
        <mxCell id="ZmZpTsVnlMf0Hm5QGKhb-21" value="" style="endArrow=classic;startArrow=classic;html=1;rounded=0;strokeWidth=3;fillColor=#f8cecc;strokeColor=#b85450;entryX=0;entryY=0.5;entryDx=0;entryDy=0;dashed=1;exitX=1;exitY=0.5;exitDx=0;exitDy=0;" edge="1" parent="ZmZpTsVnlMf0Hm5QGKhb-25" source="ZmZpTsVnlMf0Hm5QGKhb-17" target="ZmZpTsVnlMf0Hm5QGKhb-18">
          <mxGeometry width="50" height="50" relative="1" as="geometry">
            <mxPoint x="381.1" y="384.5" as="sourcePoint" />
            <mxPoint x="585.1" y="385" as="targetPoint" />
          </mxGeometry>
        </mxCell>
        <mxCell id="ZmZpTsVnlMf0Hm5QGKhb-22" value="&lt;font style=&quot;font-size: 24px;&quot;&gt;monitor&lt;/font&gt;" style="edgeLabel;html=1;align=center;verticalAlign=middle;resizable=0;points=[];" vertex="1" connectable="0" parent="ZmZpTsVnlMf0Hm5QGKhb-21">
          <mxGeometry x="0.049" y="2" relative="1" as="geometry">
            <mxPoint as="offset" />
          </mxGeometry>
        </mxCell>
        <mxCell id="ZmZpTsVnlMf0Hm5QGKhb-23" value="" style="endArrow=classic;startArrow=classic;html=1;rounded=0;strokeWidth=3;fillColor=#f8cecc;strokeColor=#b85450;dashed=1;exitX=1;exitY=0.5;exitDx=0;exitDy=0;" edge="1" parent="ZmZpTsVnlMf0Hm5QGKhb-25" source="ZmZpTsVnlMf0Hm5QGKhb-5" target="ZmZpTsVnlMf0Hm5QGKhb-13">
          <mxGeometry width="50" height="50" relative="1" as="geometry">
            <mxPoint x="232.10000000000002" y="184.5" as="sourcePoint" />
            <mxPoint x="436.1" y="185" as="targetPoint" />
          </mxGeometry>
        </mxCell>
        <mxCell id="ZmZpTsVnlMf0Hm5QGKhb-24" value="&lt;font style=&quot;font-size: 24px;&quot;&gt;monitor&lt;/font&gt;" style="edgeLabel;html=1;align=center;verticalAlign=middle;resizable=0;points=[];" vertex="1" connectable="0" parent="ZmZpTsVnlMf0Hm5QGKhb-23">
          <mxGeometry x="0.049" y="2" relative="1" as="geometry">
            <mxPoint as="offset" />
          </mxGeometry>
        </mxCell>
      </root>
    </mxGraphModel>
  </diagram>
  <diagram name="功能模型" id="TBCIbr_-ScgM2LOF8KQN">
    <mxGraphModel dx="1430" dy="830" grid="1" gridSize="10" guides="1" tooltips="1" connect="1" arrows="1" fold="1" page="1" pageScale="1" pageWidth="827" pageHeight="1169" math="0" shadow="0">
      <root>
        <mxCell id="0" />
        <mxCell id="1" parent="0" />
        <mxCell id="ZOCRbvKAbe1mdVv_SB8n-43" value="" style="group" vertex="1" connectable="0" parent="1">
          <mxGeometry x="160" y="550" width="480" height="250" as="geometry" />
        </mxCell>
        <mxCell id="ZOCRbvKAbe1mdVv_SB8n-26" value="Full-Chip 功能模型&lt;div&gt;&lt;br&gt;&lt;/div&gt;&lt;div&gt;&lt;br&gt;&lt;/div&gt;&lt;div&gt;&lt;br&gt;&lt;/div&gt;&lt;div&gt;&lt;br&gt;&lt;/div&gt;&lt;div&gt;&lt;br&gt;&lt;/div&gt;&lt;div&gt;&lt;br&gt;&lt;/div&gt;&lt;div&gt;&lt;br&gt;&lt;/div&gt;&lt;div&gt;&lt;br&gt;&lt;/div&gt;&lt;div&gt;&lt;br&gt;&lt;/div&gt;&lt;div&gt;&lt;br&gt;&lt;/div&gt;&lt;div&gt;&lt;br&gt;&lt;/div&gt;&lt;div&gt;&lt;br&gt;&lt;/div&gt;&lt;div&gt;&lt;br&gt;&lt;/div&gt;&lt;div&gt;&lt;br&gt;&lt;/div&gt;&lt;div&gt;&lt;br&gt;&lt;/div&gt;" style="rounded=0;whiteSpace=wrap;html=1;" vertex="1" parent="ZOCRbvKAbe1mdVv_SB8n-43">
          <mxGeometry width="480" height="250" as="geometry" />
        </mxCell>
        <mxCell id="ZOCRbvKAbe1mdVv_SB8n-28" value="功能模型&lt;div&gt;&lt;br&gt;&lt;/div&gt;&lt;div&gt;&lt;br&gt;&lt;/div&gt;&lt;div&gt;&lt;br&gt;&lt;/div&gt;&lt;div&gt;&lt;br&gt;&lt;/div&gt;&lt;div&gt;&lt;br&gt;&lt;/div&gt;&lt;div&gt;&lt;br&gt;&lt;/div&gt;&lt;div&gt;&lt;br&gt;&lt;/div&gt;&lt;div&gt;&lt;br&gt;&lt;/div&gt;&lt;div&gt;&lt;br&gt;&lt;/div&gt;&lt;div&gt;&lt;br&gt;&lt;/div&gt;" style="rounded=0;whiteSpace=wrap;html=1;" vertex="1" parent="ZOCRbvKAbe1mdVv_SB8n-43">
          <mxGeometry x="20" y="50" width="240" height="170" as="geometry" />
        </mxCell>
        <mxCell id="ZOCRbvKAbe1mdVv_SB8n-27" value="性能模型" style="rounded=0;whiteSpace=wrap;html=1;fillColor=#f8cecc;strokeColor=#b85450;" vertex="1" parent="ZOCRbvKAbe1mdVv_SB8n-43">
          <mxGeometry x="40" y="80" width="120" height="60" as="geometry" />
        </mxCell>
        <mxCell id="ZOCRbvKAbe1mdVv_SB8n-29" value="逻辑功能" style="rounded=0;whiteSpace=wrap;html=1;fillColor=#dae8fc;strokeColor=#6c8ebf;" vertex="1" parent="ZOCRbvKAbe1mdVv_SB8n-43">
          <mxGeometry x="40" y="140" width="120" height="60" as="geometry" />
        </mxCell>
        <mxCell id="ZOCRbvKAbe1mdVv_SB8n-30" value="寄存器文件" style="rounded=0;whiteSpace=wrap;html=1;fillColor=#ffe6cc;strokeColor=#d79b00;" vertex="1" parent="ZOCRbvKAbe1mdVv_SB8n-43">
          <mxGeometry x="330" y="50" width="120" height="170" as="geometry" />
        </mxCell>
        <mxCell id="ZOCRbvKAbe1mdVv_SB8n-32" value="" style="endArrow=classic;startArrow=classic;html=1;rounded=0;entryX=0;entryY=0.324;entryDx=0;entryDy=0;entryPerimeter=0;" edge="1" parent="ZOCRbvKAbe1mdVv_SB8n-43" target="ZOCRbvKAbe1mdVv_SB8n-30">
          <mxGeometry width="50" height="50" relative="1" as="geometry">
            <mxPoint x="260" y="104.5" as="sourcePoint" />
            <mxPoint x="330" y="105.5" as="targetPoint" />
          </mxGeometry>
        </mxCell>
        <mxCell id="ZOCRbvKAbe1mdVv_SB8n-35" value="callback" style="edgeLabel;html=1;align=center;verticalAlign=middle;resizable=0;points=[];" vertex="1" connectable="0" parent="ZOCRbvKAbe1mdVv_SB8n-32">
          <mxGeometry x="-0.1724" y="-2" relative="1" as="geometry">
            <mxPoint x="5" y="-2" as="offset" />
          </mxGeometry>
        </mxCell>
        <mxCell id="ZOCRbvKAbe1mdVv_SB8n-36" value="" style="endArrow=classic;startArrow=classic;html=1;rounded=0;" edge="1" parent="ZOCRbvKAbe1mdVv_SB8n-43">
          <mxGeometry width="50" height="50" relative="1" as="geometry">
            <mxPoint x="260" y="164.5" as="sourcePoint" />
            <mxPoint x="330" y="165.5" as="targetPoint" />
          </mxGeometry>
        </mxCell>
        <mxCell id="ZOCRbvKAbe1mdVv_SB8n-37" value="callback" style="edgeLabel;html=1;align=center;verticalAlign=middle;resizable=0;points=[];" vertex="1" connectable="0" parent="ZOCRbvKAbe1mdVv_SB8n-36">
          <mxGeometry x="-0.1724" y="-2" relative="1" as="geometry">
            <mxPoint x="5" y="-2" as="offset" />
          </mxGeometry>
        </mxCell>
        <mxCell id="ZOCRbvKAbe1mdVv_SB8n-39" value="寄存器功模型" style="rounded=0;whiteSpace=wrap;html=1;fillColor=#ffe6cc;strokeColor=#d79b00;" vertex="1" parent="ZOCRbvKAbe1mdVv_SB8n-43">
          <mxGeometry x="200" y="90" width="60" height="90" as="geometry" />
        </mxCell>
        <mxCell id="ZOCRbvKAbe1mdVv_SB8n-40" value="" style="endArrow=classic;startArrow=classic;html=1;rounded=0;entryX=0.003;entryY=0.225;entryDx=0;entryDy=0;entryPerimeter=0;" edge="1" parent="ZOCRbvKAbe1mdVv_SB8n-43" target="ZOCRbvKAbe1mdVv_SB8n-39">
          <mxGeometry width="50" height="50" relative="1" as="geometry">
            <mxPoint x="160" y="110" as="sourcePoint" />
            <mxPoint x="200" y="111" as="targetPoint" />
          </mxGeometry>
        </mxCell>
        <mxCell id="ZOCRbvKAbe1mdVv_SB8n-42" value="" style="endArrow=classic;startArrow=classic;html=1;rounded=0;entryX=0.002;entryY=0.777;entryDx=0;entryDy=0;entryPerimeter=0;exitX=1.002;exitY=0.331;exitDx=0;exitDy=0;exitPerimeter=0;" edge="1" parent="ZOCRbvKAbe1mdVv_SB8n-43" source="ZOCRbvKAbe1mdVv_SB8n-29" target="ZOCRbvKAbe1mdVv_SB8n-39">
          <mxGeometry width="50" height="50" relative="1" as="geometry">
            <mxPoint x="160" y="160" as="sourcePoint" />
            <mxPoint x="200" y="161" as="targetPoint" />
          </mxGeometry>
        </mxCell>
        <mxCell id="hVbKmmWZuJdFZrK44Yep-50" value="" style="group" vertex="1" connectable="0" parent="1">
          <mxGeometry x="130" y="50" width="510" height="300" as="geometry" />
        </mxCell>
        <mxCell id="hVbKmmWZuJdFZrK44Yep-47" value="" style="rounded=0;whiteSpace=wrap;html=1;fillColor=#f5f5f5;fontColor=#333333;strokeColor=#666666;" vertex="1" parent="hVbKmmWZuJdFZrK44Yep-50">
          <mxGeometry x="50" width="400" height="300" as="geometry" />
        </mxCell>
        <mxCell id="hVbKmmWZuJdFZrK44Yep-10" value="" style="group" vertex="1" connectable="0" parent="hVbKmmWZuJdFZrK44Yep-50">
          <mxGeometry x="70" y="80" width="60" height="100" as="geometry" />
        </mxCell>
        <mxCell id="hVbKmmWZuJdFZrK44Yep-1" value="" style="rounded=0;whiteSpace=wrap;html=1;fillColor=#f8cecc;strokeColor=#b85450;" vertex="1" parent="hVbKmmWZuJdFZrK44Yep-10">
          <mxGeometry width="60" height="20" as="geometry" />
        </mxCell>
        <mxCell id="hVbKmmWZuJdFZrK44Yep-6" value="" style="rounded=0;whiteSpace=wrap;html=1;fillColor=#f8cecc;strokeColor=#b85450;" vertex="1" parent="hVbKmmWZuJdFZrK44Yep-10">
          <mxGeometry y="20" width="60" height="20" as="geometry" />
        </mxCell>
        <mxCell id="hVbKmmWZuJdFZrK44Yep-7" value="" style="rounded=0;whiteSpace=wrap;html=1;fillColor=#f8cecc;strokeColor=#b85450;" vertex="1" parent="hVbKmmWZuJdFZrK44Yep-10">
          <mxGeometry y="40" width="60" height="20" as="geometry" />
        </mxCell>
        <mxCell id="hVbKmmWZuJdFZrK44Yep-8" value="" style="rounded=0;whiteSpace=wrap;html=1;fillColor=#f8cecc;strokeColor=#b85450;" vertex="1" parent="hVbKmmWZuJdFZrK44Yep-10">
          <mxGeometry y="60" width="60" height="20" as="geometry" />
        </mxCell>
        <mxCell id="hVbKmmWZuJdFZrK44Yep-9" value="" style="rounded=0;whiteSpace=wrap;html=1;fillColor=#f8cecc;strokeColor=#b85450;" vertex="1" parent="hVbKmmWZuJdFZrK44Yep-10">
          <mxGeometry y="80" width="60" height="20" as="geometry" />
        </mxCell>
        <mxCell id="hVbKmmWZuJdFZrK44Yep-34" style="edgeStyle=orthogonalEdgeStyle;rounded=0;orthogonalLoop=1;jettySize=auto;html=1;exitX=0.5;exitY=1;exitDx=0;exitDy=0;entryX=0.5;entryY=0;entryDx=0;entryDy=0;startArrow=classic;startFill=1;" edge="1" parent="hVbKmmWZuJdFZrK44Yep-50" source="hVbKmmWZuJdFZrK44Yep-17" target="hVbKmmWZuJdFZrK44Yep-20">
          <mxGeometry relative="1" as="geometry" />
        </mxCell>
        <mxCell id="hVbKmmWZuJdFZrK44Yep-35" style="edgeStyle=orthogonalEdgeStyle;rounded=0;orthogonalLoop=1;jettySize=auto;html=1;exitX=1;exitY=0.5;exitDx=0;exitDy=0;entryX=0;entryY=0.5;entryDx=0;entryDy=0;startArrow=classic;startFill=1;" edge="1" parent="hVbKmmWZuJdFZrK44Yep-50" source="hVbKmmWZuJdFZrK44Yep-17" target="hVbKmmWZuJdFZrK44Yep-29">
          <mxGeometry relative="1" as="geometry" />
        </mxCell>
        <mxCell id="hVbKmmWZuJdFZrK44Yep-17" value="control logic" style="rounded=0;whiteSpace=wrap;html=1;fillColor=#dae8fc;strokeColor=#6c8ebf;" vertex="1" parent="hVbKmmWZuJdFZrK44Yep-50">
          <mxGeometry x="210" y="65" width="90" height="40" as="geometry" />
        </mxCell>
        <mxCell id="hVbKmmWZuJdFZrK44Yep-20" value="callback" style="rounded=0;whiteSpace=wrap;html=1;fillColor=#fff2cc;strokeColor=#d6b656;" vertex="1" parent="hVbKmmWZuJdFZrK44Yep-50">
          <mxGeometry x="210" y="150" width="90" height="40" as="geometry" />
        </mxCell>
        <mxCell id="hVbKmmWZuJdFZrK44Yep-18" value="callback" style="rounded=0;whiteSpace=wrap;html=1;fillColor=#fff2cc;strokeColor=#d6b656;" vertex="1" parent="hVbKmmWZuJdFZrK44Yep-50">
          <mxGeometry x="200" y="160" width="90" height="40" as="geometry" />
        </mxCell>
        <mxCell id="hVbKmmWZuJdFZrK44Yep-25" value="" style="group" vertex="1" connectable="0" parent="hVbKmmWZuJdFZrK44Yep-50">
          <mxGeometry x="196" y="240" width="102" height="50" as="geometry" />
        </mxCell>
        <mxCell id="hVbKmmWZuJdFZrK44Yep-24" value="register" style="shape=process;whiteSpace=wrap;html=1;backgroundOutline=1;fillColor=#e1d5e7;strokeColor=#9673a6;" vertex="1" parent="hVbKmmWZuJdFZrK44Yep-25">
          <mxGeometry x="6" width="96" height="40" as="geometry" />
        </mxCell>
        <mxCell id="hVbKmmWZuJdFZrK44Yep-23" value="register" style="shape=process;whiteSpace=wrap;html=1;backgroundOutline=1;fillColor=#e1d5e7;strokeColor=#9673a6;" vertex="1" parent="hVbKmmWZuJdFZrK44Yep-25">
          <mxGeometry y="10" width="96" height="40" as="geometry" />
        </mxCell>
        <mxCell id="hVbKmmWZuJdFZrK44Yep-26" value="" style="group" vertex="1" connectable="0" parent="hVbKmmWZuJdFZrK44Yep-50">
          <mxGeometry x="380" y="80" width="60" height="100" as="geometry" />
        </mxCell>
        <mxCell id="hVbKmmWZuJdFZrK44Yep-27" value="" style="rounded=0;whiteSpace=wrap;html=1;fillColor=#f8cecc;strokeColor=#b85450;" vertex="1" parent="hVbKmmWZuJdFZrK44Yep-26">
          <mxGeometry width="60" height="20" as="geometry" />
        </mxCell>
        <mxCell id="hVbKmmWZuJdFZrK44Yep-28" value="" style="rounded=0;whiteSpace=wrap;html=1;fillColor=#f8cecc;strokeColor=#b85450;" vertex="1" parent="hVbKmmWZuJdFZrK44Yep-26">
          <mxGeometry y="20" width="60" height="20" as="geometry" />
        </mxCell>
        <mxCell id="hVbKmmWZuJdFZrK44Yep-29" value="" style="rounded=0;whiteSpace=wrap;html=1;fillColor=#f8cecc;strokeColor=#b85450;" vertex="1" parent="hVbKmmWZuJdFZrK44Yep-26">
          <mxGeometry y="40" width="60" height="20" as="geometry" />
        </mxCell>
        <mxCell id="hVbKmmWZuJdFZrK44Yep-30" value="" style="rounded=0;whiteSpace=wrap;html=1;fillColor=#f8cecc;strokeColor=#b85450;" vertex="1" parent="hVbKmmWZuJdFZrK44Yep-26">
          <mxGeometry y="60" width="60" height="20" as="geometry" />
        </mxCell>
        <mxCell id="hVbKmmWZuJdFZrK44Yep-31" value="" style="rounded=0;whiteSpace=wrap;html=1;fillColor=#f8cecc;strokeColor=#b85450;" vertex="1" parent="hVbKmmWZuJdFZrK44Yep-26">
          <mxGeometry y="80" width="60" height="20" as="geometry" />
        </mxCell>
        <mxCell id="hVbKmmWZuJdFZrK44Yep-33" style="edgeStyle=orthogonalEdgeStyle;rounded=0;orthogonalLoop=1;jettySize=auto;html=1;exitX=1;exitY=0.25;exitDx=0;exitDy=0;entryX=0;entryY=0.5;entryDx=0;entryDy=0;startArrow=classic;startFill=1;" edge="1" parent="hVbKmmWZuJdFZrK44Yep-50" source="hVbKmmWZuJdFZrK44Yep-7" target="hVbKmmWZuJdFZrK44Yep-17">
          <mxGeometry relative="1" as="geometry" />
        </mxCell>
        <mxCell id="hVbKmmWZuJdFZrK44Yep-36" style="edgeStyle=orthogonalEdgeStyle;rounded=0;orthogonalLoop=1;jettySize=auto;html=1;entryX=0.455;entryY=-0.087;entryDx=0;entryDy=0;entryPerimeter=0;startArrow=classic;startFill=1;" edge="1" parent="hVbKmmWZuJdFZrK44Yep-50" source="hVbKmmWZuJdFZrK44Yep-18" target="hVbKmmWZuJdFZrK44Yep-24">
          <mxGeometry relative="1" as="geometry" />
        </mxCell>
        <mxCell id="hVbKmmWZuJdFZrK44Yep-37" value="" style="endArrow=classic;html=1;rounded=0;" edge="1" parent="hVbKmmWZuJdFZrK44Yep-50" target="hVbKmmWZuJdFZrK44Yep-6">
          <mxGeometry width="50" height="50" relative="1" as="geometry">
            <mxPoint y="110" as="sourcePoint" />
            <mxPoint x="70" y="110" as="targetPoint" />
          </mxGeometry>
        </mxCell>
        <mxCell id="hVbKmmWZuJdFZrK44Yep-38" value="" style="endArrow=classic;html=1;rounded=0;" edge="1" parent="hVbKmmWZuJdFZrK44Yep-50" target="hVbKmmWZuJdFZrK44Yep-8">
          <mxGeometry width="50" height="50" relative="1" as="geometry">
            <mxPoint y="150" as="sourcePoint" />
            <mxPoint x="70" y="150" as="targetPoint" />
          </mxGeometry>
        </mxCell>
        <mxCell id="hVbKmmWZuJdFZrK44Yep-39" value="" style="endArrow=classic;html=1;rounded=0;" edge="1" parent="hVbKmmWZuJdFZrK44Yep-50" source="hVbKmmWZuJdFZrK44Yep-28">
          <mxGeometry width="50" height="50" relative="1" as="geometry">
            <mxPoint x="440" y="109.66" as="sourcePoint" />
            <mxPoint x="510" y="109.66" as="targetPoint" />
          </mxGeometry>
        </mxCell>
        <mxCell id="hVbKmmWZuJdFZrK44Yep-40" value="" style="endArrow=classic;html=1;rounded=0;" edge="1" parent="hVbKmmWZuJdFZrK44Yep-50" source="hVbKmmWZuJdFZrK44Yep-30">
          <mxGeometry width="50" height="50" relative="1" as="geometry">
            <mxPoint x="440" y="149.66" as="sourcePoint" />
            <mxPoint x="510" y="149.66" as="targetPoint" />
          </mxGeometry>
        </mxCell>
        <mxCell id="hVbKmmWZuJdFZrK44Yep-41" value="&lt;b&gt;......&lt;/b&gt;" style="text;html=1;align=center;verticalAlign=middle;whiteSpace=wrap;rounded=0;" vertex="1" parent="hVbKmmWZuJdFZrK44Yep-50">
          <mxGeometry y="115" width="60" height="30" as="geometry" />
        </mxCell>
        <mxCell id="hVbKmmWZuJdFZrK44Yep-44" value="&lt;b&gt;......&lt;/b&gt;" style="text;html=1;align=center;verticalAlign=middle;whiteSpace=wrap;rounded=0;" vertex="1" parent="hVbKmmWZuJdFZrK44Yep-50">
          <mxGeometry x="440" y="115" width="60" height="30" as="geometry" />
        </mxCell>
        <mxCell id="hVbKmmWZuJdFZrK44Yep-45" value="&lt;font style=&quot;font-size: 14px;&quot;&gt;slave&lt;/font&gt;&lt;div&gt;&lt;font style=&quot;&quot; size=&quot;3&quot;&gt;port&lt;/font&gt;&lt;/div&gt;" style="text;html=1;align=center;verticalAlign=middle;whiteSpace=wrap;rounded=0;" vertex="1" parent="hVbKmmWZuJdFZrK44Yep-50">
          <mxGeometry y="165" width="60" height="30" as="geometry" />
        </mxCell>
        <mxCell id="hVbKmmWZuJdFZrK44Yep-46" value="&lt;span style=&quot;font-size: 14px;&quot;&gt;master&lt;/span&gt;&lt;br&gt;&lt;div&gt;&lt;font style=&quot;&quot; size=&quot;3&quot;&gt;port&lt;/font&gt;&lt;/div&gt;" style="text;html=1;align=center;verticalAlign=middle;whiteSpace=wrap;rounded=0;" vertex="1" parent="hVbKmmWZuJdFZrK44Yep-50">
          <mxGeometry x="444" y="160" width="60" height="30" as="geometry" />
        </mxCell>
        <mxCell id="hVbKmmWZuJdFZrK44Yep-48" value="&lt;span style=&quot;font-size: 14px;&quot;&gt;s_peq&lt;/span&gt;" style="text;html=1;align=center;verticalAlign=middle;whiteSpace=wrap;rounded=0;" vertex="1" parent="hVbKmmWZuJdFZrK44Yep-50">
          <mxGeometry x="70" y="180" width="60" height="30" as="geometry" />
        </mxCell>
        <mxCell id="hVbKmmWZuJdFZrK44Yep-49" value="&lt;span style=&quot;font-size: 14px;&quot;&gt;m_peq&lt;/span&gt;" style="text;html=1;align=center;verticalAlign=middle;whiteSpace=wrap;rounded=0;" vertex="1" parent="hVbKmmWZuJdFZrK44Yep-50">
          <mxGeometry x="380" y="180" width="60" height="30" as="geometry" />
        </mxCell>
      </root>
    </mxGraphModel>
  </diagram>
</mxfile>
